<svg xmlns="http://www.w3.org/2000/svg" id="Layer_1" x="0" y="0" enable-background="new 0 0 3800 3000" version="1.1" viewBox="0 0 3800 3000" xml:space="preserve"><path fill="#f7f0f1" d="M654.52,898.84c205.91-255.92,1058.75-626.6,916.21-390.81c-142.53,235.79,86.27,328.3,573.85,120.87
				s796.86-473.9,801.22,51.38c4.36,525.28,540.15,235.25,509.66,515.3c-30.49,280.05-800.49,362.19-541.82,632.58
				c258.67,270.39,401.85,417.9,32.16,389.94c-848.96-64.2-1610.12-591.06-1963.77-320.46
				c-353.65,270.61-1039.65,254.69-388.5-227.46S554.33,1023.36,654.52,898.84z"/><path fill="#f7f0f1" d="M2200.45 536.38c85.43 19.87 217.89-39.2 183.72-71.15C2350.01 433.29 2138.01 521.86 2200.45 536.38zM1719.29 458.33c36.55 6.98 107.06-65.76 86.71-84.12C1785.66 355.84 1678.09 450.47 1719.29 458.33zM3057.14 1793.54c-62.59 15.55-126.32-94.1-18.88-146.37 107.45-52.27 15.97-15.97 11.62 43.56C3045.52 1750.26 3110.86 1780.19 3057.14 1793.54zM635.18 1542.97c189.94-45.97 217.8-175.76 100.19-167.07C617.75 1384.6 556.77 1561.94 635.18 1542.97z"/><circle cx="2811.24" cy="810.96" r="4.2" fill="#fff"/><circle cx="2811.24" cy="850.89" r="4.2" fill="#fff"/><circle cx="2811.24" cy="890.83" r="4.2" fill="#fff"/><circle cx="2811.24" cy="930.76" r="4.2" fill="#fff"/><circle cx="2846.52" cy="788.72" r="4.2" fill="#fff"/><circle cx="2846.52" cy="828.66" r="4.2" fill="#fff"/><circle cx="2846.52" cy="868.59" r="4.2" fill="#fff"/><circle cx="2846.52" cy="908.53" r="4.2" fill="#fff"/><g><path fill="#fff" d="M2828.02 1563.89c-1.49 1.78-4.14 2.02-5.92.53-1.78-1.49-2.02-4.14-.53-5.92 1.49-1.78 4.14-2.02 5.92-.53C2829.28 1559.46 2829.51 1562.11 2828.02 1563.89zM2802.4 1594.52c-1.49 1.78-4.14 2.02-5.92.53-1.78-1.49-2.02-4.14-.53-5.92 1.49-1.78 4.14-2.02 5.92-.53S2803.89 1592.74 2802.4 1594.52zM2776.78 1625.16c-1.49 1.78-4.14 2.02-5.92.53-1.78-1.49-2.02-4.14-.53-5.92 1.49-1.78 4.14-2.02 5.92-.53C2778.03 1620.72 2778.27 1623.37 2776.78 1625.16zM2751.16 1655.79c-1.49 1.78-4.14 2.02-5.92.53-1.78-1.49-2.02-4.14-.53-5.92 1.49-1.78 4.14-2.02 5.92-.53C2752.41 1651.36 2752.65 1654.01 2751.16 1655.79zM2869.35 1569.47c-1.49 1.78-4.14 2.02-5.92.53-1.78-1.49-2.02-4.14-.53-5.92 1.49-1.78 4.14-2.02 5.92-.53C2870.61 1565.04 2870.84 1567.69 2869.35 1569.47zM2843.73 1600.1c-1.49 1.78-4.14 2.02-5.92.53-1.78-1.49-2.02-4.14-.53-5.92 1.49-1.78 4.14-2.02 5.92-.53C2844.99 1595.67 2845.22 1598.32 2843.73 1600.1zM2818.11 1630.73c-1.49 1.78-4.14 2.02-5.92.53s-2.02-4.14-.53-5.92c1.49-1.78 4.14-2.02 5.92-.53C2819.36 1626.3 2819.6 1628.95 2818.11 1630.73zM2792.49 1661.37c-1.49 1.78-4.14 2.02-5.92.53-1.78-1.49-2.02-4.14-.53-5.92 1.49-1.78 4.14-2.02 5.92-.53C2793.74 1656.93 2793.98 1659.59 2792.49 1661.37z"/></g><g><circle cx="806.37" cy="1732.69" r="4.2" fill="#fff"/><circle cx="806.37" cy="1772.62" r="4.2" fill="#fff"/><circle cx="806.37" cy="1812.56" r="4.2" fill="#fff"/><circle cx="806.37" cy="1852.49" r="4.2" fill="#fff"/><circle cx="841.65" cy="1710.45" r="4.2" fill="#fff"/><circle cx="841.65" cy="1750.39" r="4.2" fill="#fff"/><circle cx="841.65" cy="1790.32" r="4.2" fill="#fff"/><circle cx="841.65" cy="1830.26" r="4.2" fill="#fff"/></g><g><rect width="655.19" height="375.85" x="1533.39" y="2096.06" fill="#1f4168"/><rect width="655.19" height="187.93" x="1533.39" y="2096.06" fill="#231f20" opacity=".2"/><path fill="#385877" d="M2243.65,2354.31h-765.33c-49.81,0-90.18,60.07-90.18,134.16h945.7
						C2333.84,2414.37,2293.46,2354.31,2243.65,2354.31z"/><rect width="2184.03" height="1239.83" x="768.98" y="782.99" fill="#fff"/><path fill="#1f4168" d="M2985.14,645.29c0,0-0.07,0-0.07-0.07c-3.15-7.39-6.95-14.49-11.27-21.23c-0.95-1.46-1.98-2.93-3-4.39
					c-3.29-4.68-6.81-9.15-10.69-13.39c-3-3.29-6.08-6.37-9.3-9.3c-4.9-4.47-10.17-8.56-15.66-12.3
					c-22.03-14.79-48.53-23.5-77.08-23.5H863.91c-19.03,0-37.11,3.88-53.66,10.76c0,0-0.07,0-0.07,0.07
					c-7.39,3.15-14.49,6.95-21.23,11.27c-1.54,0.95-3,1.9-4.39,3c-4.68,3.29-9.15,6.81-13.4,10.69
					C743.42,622.08,726,658.46,726,698.95v1354.79c0,2.85,0.07,5.64,0.29,8.42c0.07,1.54,0.15,3,0.37,4.54
					c0,0.8,0.07,1.54,0.22,2.34c0.15,1.9,0.44,3.81,0.73,5.64c0.22,1.46,0.44,2.85,0.73,4.25c0.22,1.39,0.51,2.78,0.81,4.17
					c0.44,1.9,0.88,3.73,1.32,5.56c0.51,2.05,1.1,4.03,1.76,6c0.44,1.46,0.95,3,1.46,4.47c0.37,1.17,0.81,2.34,1.32,3.59
					c5.2,13.62,12.52,26.28,21.59,37.48c0.81,1.02,1.68,2.05,2.49,3.07c0.37,0.44,0.81,0.88,1.17,1.32c0.88,0.95,1.68,1.9,2.64,2.86
					c1.02,1.17,2.2,2.34,3.29,3.44c1.1,1.17,2.2,2.2,3.37,3.29c0.07,0.07,0.07,0.07,0.15,0.07c1.17,1.17,2.34,2.2,3.51,3.22
					c2.42,2.12,4.83,4.1,7.39,6.08c1.24,0.88,2.42,1.76,3.66,2.64c0.15,0.15,0.29,0.22,0.37,0.29c1.32,0.88,2.56,1.76,3.88,2.64
					c2.64,1.76,5.42,3.37,8.2,4.98c1.46,0.73,2.85,1.54,4.32,2.27c1.39,0.73,2.85,1.46,4.32,2.12c4.39,2.05,9,3.95,13.69,5.56
					c2.2,0.8,4.47,1.46,6.73,2.12c0.22,0.07,0.37,0.15,0.59,0.22c4.76,1.32,9.59,2.42,14.49,3.22c1.9,0.37,3.88,0.66,5.78,0.88
					c3.15,0.44,6.3,0.73,9.44,0.88c2.63,0.15,5.2,0.22,7.83,0.22h1994.23c5.12,0,10.18-0.29,15.15-0.88
					c1.9-0.15,3.88-0.44,5.78-0.73c1.98-0.29,3.88-0.66,5.86-1.02c1.9-0.37,3.81-0.8,5.71-1.24c2.05-0.51,4.17-1.03,6.15-1.68
					c2.34-0.66,4.68-1.39,6.95-2.2l4.17-1.54c0.66-0.29,1.24-0.51,1.9-0.8c1.54-0.59,3.07-1.24,4.54-1.9
					c0.22-0.07,0.44-0.22,0.59-0.29c1.68-0.73,3.29-1.46,4.9-2.34c0.37-0.15,0.66-0.29,0.95-0.44c1.68-0.88,3.44-1.83,5.12-2.78
					c1.46-0.8,2.85-1.68,4.25-2.49c1.32-0.81,2.64-1.61,3.88-2.49c6.08-4.03,11.79-8.49,17.13-13.32c2.12-1.98,4.17-3.95,6.15-6.08
					c1.32-1.32,2.49-2.56,3.66-3.95c1.54-1.68,3.07-3.51,4.54-5.34c1.46-1.76,2.86-3.66,4.25-5.56c1.32-1.9,2.64-3.81,3.95-5.78
					c2.56-3.88,4.9-7.98,7.03-12.15c1.1-2.12,2.12-4.25,3.07-6.37c0.95-2.12,1.9-4.32,2.78-6.51c1.68-4.47,3.22-9,4.47-13.62
					c1.24-4.61,2.27-9.37,3.07-14.2c1.24-7.17,1.83-14.64,1.83-22.18V698.95C2995.98,679.91,2992.1,661.76,2985.14,645.29z
					 M2947.82,2022.82H763.8V782.99h2184.03V2022.82z"/><g opacity=".24"><polyline fill="none" points="1673.67 1206.24 1457.29 1206.24 1436.24 1206.24 1244.98 1206.24 1223.93 1206.24 1032.68 1206.24 1011.63 1206.24 942.86 1206.24"/><path fill="#1d1b2c" d="M1589.45,1186.84H893.63c-5.57,0-10.08,4.51-10.08,10.08c0,5.57,4.51,10.08,10.08,10.08h695.81
								c5.57,0,10.08-4.51,10.08-10.08C1599.53,1191.36,1595.01,1186.84,1589.45,1186.84z"/><path fill="#fba31c" d="M1173.09,1427.39l-16.1,8.77l1.43,135.58l1.47,110.2H898.52l1-110.2l1.5-135.58l-16.08-8.77
									l-68.31-36.07c0,0,22.42-82.4,76.1-127.77c22.44-19.49,50.65-30.25,75.58-36.57c0.46,0,0.46,0,0.93,0
									c1.48-0.46,3.41-1,4.9-1.45c22.42-4.86,42.38-6.36,51.67-6.81c0,0,1.02,0,3.41,0c1.97,0,3.41,0,3.41,0
									c9.29,0.46,28.79,1.95,51.21,6.81c1.98,0.46,3.41,1,5.34,1.45c24.85,5.86,53.14,17.08,76.1,36.57
									c53.6,45.37,76.04,127.77,76.04,127.77L1173.09,1427.39z"/><polygon fill="#208f71" points="899.52 1571.74 901.02 1436.15 884.94 1427.39 920 1369.84" opacity=".5"/><polygon fill="#208f71" points="1158.66 1571.74 1157.18 1436.15 1173.28 1427.39 1138.21 1369.84" opacity=".5"/><polygon fill="#208f71" points="982.44 1681.93 932.66 1681.93 942.42 1656.09 942.42 1668.76 957.55 1608.8 961.41 1654.63 965.88 1643.91" opacity=".5"/><path fill="#f1f2f2" d="M1089.18,1233.3c-3.36,17.58-28.75,31.25-59.96,31.25c-31.23,0-57.01-13.67-59.98-31.25
									c1.48-0.46,3.41-0.96,4.9-1.41c22.42-4.9,42.38-6.4,51.67-6.86c0,0,1.02,0,3.41,0c1.97,0,3.41,0,3.41,0
									c9.29,0.46,28.79,1.95,51.21,6.86C1085.82,1232.34,1087.25,1232.84,1089.18,1233.3z"/><linearGradient id="SVGID_1_" x1="974.147" x2="1083.842" y1="1243.313" y2="1243.313" gradientUnits="userSpaceOnUse"><stop offset="0" stop-color="#047c80"/><stop offset="1" stop-color="#1c4f76"/></linearGradient><path fill="url(#SVGID_1_)" d="M1083.84,1231.89c-1.93,16.54-25.39,29.71-54.62,29.71c-29.25,0-53.12-13.17-55.08-29.71
									c22.42-4.9,42.38-6.4,51.67-6.86c0,0,1.02,0,3.41,0c1.97,0,3.41,0,3.41,0C1041.92,1225.49,1061.43,1226.98,1083.84,1231.89z
									"/><path fill="#1f4168" d="M1050.35,1187.3h-10.95c-1.77-4.2-5.86-7.06-10.76-7.06c-4.8,0-8.98,2.87-10.74,7.06h-10.8
								c2.08-9.93,10.99-17.53,21.54-17.53C1039.4,1169.77,1048.23,1177.37,1050.35,1187.3z"/><g><path fill="#fcbf44" d="M1385.42,1427.39l-16.1,8.77l1.43,135.58l1.47,110.2h-261.38l1-110.2l1.5-135.58l-16.08-8.77
									l-68.31-36.07c0,0,22.42-82.4,76.1-127.77c22.42-19.49,50.65-30.25,75.58-36.57c0.46,0,0.46,0,0.94,0
									c1.47-0.46,3.41-1,4.9-1.45c22.42-4.86,42.38-6.36,51.67-6.81c0,0,1.02,0,3.41,0c1.97,0,3.41,0,3.41,0
									c9.29,0.46,28.8,1.95,51.21,6.81c1.97,0.46,3.41,1,5.34,1.45c24.85,5.86,53.15,17.08,76.1,36.57
									c53.6,45.37,76.04,127.77,76.04,127.77L1385.42,1427.39z"/><polygon fill="#208f71" points="1111.85 1571.74 1113.34 1436.15 1097.26 1427.39 1132.33 1369.84" opacity=".5"/><polygon fill="#208f71" points="1370.98 1571.74 1369.51 1436.15 1385.61 1427.39 1350.52 1369.84" opacity=".5"/><polygon fill="#208f71" points="1194.76 1681.93 1144.98 1681.93 1154.75 1656.09 1154.75 1668.76 1169.88 1608.8 1173.74 1654.63 1178.21 1643.91" opacity=".5"/><path fill="#f1f2f2" d="M1301.51,1233.3c-3.36,17.58-28.75,31.25-59.96,31.25c-31.23,0-57.03-13.67-59.98-31.25
									c1.47-0.46,3.41-0.96,4.9-1.41c22.42-4.9,42.38-6.4,51.67-6.86c0,0,1.02,0,3.41,0c1.97,0,3.41,0,3.41,0
									c9.29,0.46,28.8,1.95,51.21,6.86C1298.14,1232.34,1299.58,1232.84,1301.51,1233.3z"/><linearGradient id="SVGID_00000126310911466503955600000013044192119271444410_" x1="1186.475" x2="1296.171" y1="1243.313" y2="1243.313" gradientUnits="userSpaceOnUse"><stop offset="0" stop-color="#047c80"/><stop offset="1" stop-color="#1c4f76"/></linearGradient><path fill="url(#SVGID_00000126310911466503955600000013044192119271444410_)" d="M1296.17,1231.89
									c-1.93,16.54-25.39,29.71-54.62,29.71c-29.25,0-53.12-13.17-55.08-29.71c22.42-4.9,42.38-6.4,51.67-6.86c0,0,1.02,0,3.41,0
									c1.97,0,3.41,0,3.41,0C1254.24,1225.49,1273.75,1226.98,1296.17,1231.89z"/><path fill="#1f4168" d="M1262.68,1187.3h-10.95c-1.79-4.2-5.86-7.06-10.76-7.06c-4.8,0-8.98,2.87-10.74,7.06h-10.8
								c2.08-9.93,10.99-17.53,21.54-17.53C1251.73,1169.77,1260.56,1177.37,1262.68,1187.3z"/></g><g><path fill="#385877" d="M1597.75,1427.39l-16.1,8.77l1.43,135.58l1.48,110.2h-261.38l0.98-110.2l1.52-135.58l-16.1-8.77
									l-68.29-36.07c0,0,22.42-82.4,76.1-127.77c22.42-19.49,50.65-30.25,75.58-36.57c0.46,0,0.46,0,0.94,0
									c1.47-0.46,3.41-1,4.9-1.45c22.42-4.86,42.38-6.36,51.67-6.81c0,0,1.02,0,3.41,0c1.95,0,3.41,0,3.41,0
									c9.29,0.46,28.78,1.95,51.21,6.81c1.97,0.46,3.41,1,5.34,1.45c24.85,5.86,53.14,17.08,76.1,36.57
									c53.6,45.37,76.04,127.77,76.04,127.77L1597.75,1427.39z"/><polygon fill="#208f71" points="1324.16 1571.74 1325.67 1436.15 1309.57 1427.39 1344.66 1369.84" opacity=".5"/><polygon fill="#208f71" points="1583.31 1571.74 1581.84 1436.15 1597.94 1427.39 1562.85 1369.84" opacity=".5"/><polygon fill="#208f71" points="1407.09 1681.93 1357.31 1681.93 1367.08 1656.09 1367.08 1668.76 1382.2 1608.8 1386.07 1654.63 1390.53 1643.91" opacity=".5"/><path fill="#f1f2f2" d="M1513.84,1233.3c-3.37,17.58-28.75,31.25-59.96,31.25c-31.23,0-57.03-13.67-59.98-31.25
									c1.47-0.46,3.41-0.96,4.9-1.41c22.42-4.9,42.38-6.4,51.67-6.86c0,0,1.02,0,3.41,0c1.95,0,3.41,0,3.41,0
									c9.29,0.46,28.78,1.95,51.21,6.86C1510.47,1232.34,1511.91,1232.84,1513.84,1233.3z"/><linearGradient id="SVGID_00000062173057103384841500000006745851863606719921_" x1="1398.802" x2="1508.498" y1="1243.313" y2="1243.313" gradientUnits="userSpaceOnUse"><stop offset="0" stop-color="#047c80"/><stop offset="1" stop-color="#1c4f76"/></linearGradient><path fill="url(#SVGID_00000062173057103384841500000006745851863606719921_)" d="M1508.5,1231.89
									c-1.93,16.54-25.39,29.71-54.62,29.71c-29.25,0-53.12-13.17-55.08-29.71c22.42-4.9,42.38-6.4,51.67-6.86c0,0,1.02,0,3.41,0
									c1.95,0,3.41,0,3.41,0C1466.57,1225.49,1486.06,1226.98,1508.5,1231.89z"/><path fill="#1f4168" d="M1475.01,1187.3h-10.95c-1.79-4.2-5.88-7.06-10.76-7.06c-4.8,0-8.98,2.87-10.76,7.06h-10.78
								c2.08-9.93,10.99-17.53,21.55-17.53C1464.06,1169.77,1472.89,1177.37,1475.01,1187.3z"/><g><path fill="#1f4168" d="M1032.69 1206.25l-.83-.83c0 0-2.72-1.41-3.22-1.41-1.25 0-2.58-.17-3.68-.62-4.84-1.5-8.21-5.98-8.21-11.26 0-1.75.37-3.37 1.14-4.82h-10.8c-.42 1.58-.58 3.2-.58 4.82 0 3.99 1.14 7.85 3.03 11.26 3.22 5.44 8.73 9.47 15.04 10.55v6.34c-19.5.51-37.35 4.6-51.75 11.1.13.13.26.38.51.76.38.64.89 1.41 1.28 2.3.76 1.4 1.53 2.81 1.53 2.81s.77 2.3 1.91 4.34c.38.64.89 1.28 1.27 1.79h99.39l2.04-2.93 2.3-3.45c0 0 2.04-2.68 2.93-4.46.13-.13.13-.38.26-.51-14.8-6.89-33.16-11.35-53.57-11.74V1206.25zM1245.02 1206.25l-.83-.83c0 0-2.72-1.41-3.22-1.41-1.25 0-2.58-.17-3.68-.62-4.84-1.5-8.21-5.98-8.21-11.26 0-1.75.37-3.37 1.14-4.82h-10.8c-.41 1.58-.58 3.2-.58 4.82 0 3.99 1.14 7.85 3.03 11.26 3.22 5.44 8.72 9.47 15.04 10.55v6.34c-19.51.51-37.36 4.59-51.77 11.1.13.13.26.38.51.76.38.64.89 1.41 1.28 2.3.76 1.4 1.53 2.81 1.53 2.81s.76 2.3 1.91 4.34c.38.64.89 1.28 1.28 1.79h99.39l2.04-2.93 2.3-3.45c0 0 2.04-2.68 2.93-4.46.13-.13.13-.38.26-.51-14.66-6.89-33.15-11.35-53.55-11.74V1206.25zM1457.35 1220.28v-14.03l-.83-.83c0 0-2.72-1.41-3.22-1.41-1.25 0-2.58-.17-3.68-.62-4.84-1.5-8.21-5.98-8.21-11.26 0-1.75.38-3.37 1.12-4.82h-10.78c-.41 1.58-.58 3.2-.58 4.82 0 3.99 1.14 7.85 3.03 11.26 3.22 5.44 8.73 9.47 15.04 10.55v6.34c-19.52.51-37.38 4.59-51.67 11.1.13.13.26.38.51.76.38.64.89 1.41 1.28 2.3v.13c.77 1.4 1.4 2.68 1.4 2.68s.76 2.3 1.91 4.34c.38.64.89 1.28 1.28 1.79h99.52l1.66-2.55 2.55-3.83c0 0 2.04-2.68 3.06-4.46.13-.13.13-.38.25-.51C1496.21 1225.13 1477.61 1220.66 1457.35 1220.28z"/></g></g><g><polyline fill="none" points="2904.16 1206.24 2687.77 1206.24 2666.72 1206.24 2475.47 1206.24 2454.42 1206.24 2263.16 1206.24 2242.11 1206.24 2173.34 1206.24"/><path fill="#1d1b2c" d="M2819.94,1186.84h-695.81c-5.57,0-10.08,4.51-10.08,10.08c0,5.57,4.51,10.08,10.08,10.08h695.81
								c5.57,0,10.08-4.51,10.08-10.08C2830.01,1191.36,2825.5,1186.84,2819.94,1186.84z"/><path fill="#fba31c" d="M2403.58,1427.39l-16.1,8.77l1.43,135.58l1.48,110.2h-261.38l1-110.2l1.5-135.58l-16.08-8.77
									l-68.31-36.07c0,0,22.42-82.4,76.1-127.77c22.44-19.49,50.65-30.25,75.58-36.57c0.46,0,0.46,0,0.93,0
									c1.48-0.46,3.41-1,4.9-1.45c22.42-4.86,42.38-6.36,51.67-6.81c0,0,1.02,0,3.41,0c1.97,0,3.41,0,3.41,0
									c9.29,0.46,28.79,1.95,51.21,6.81c1.98,0.46,3.41,1,5.34,1.45c24.85,5.86,53.14,17.08,76.1,36.57
									c53.6,45.37,76.04,127.77,76.04,127.77L2403.58,1427.39z"/><polygon fill="#208f71" points="2130.01 1571.74 2131.5 1436.15 2115.42 1427.39 2150.49 1369.84" opacity=".5"/><polygon fill="#208f71" points="2389.14 1571.74 2387.67 1436.15 2403.77 1427.39 2368.7 1369.84" opacity=".5"/><polygon fill="#208f71" points="2212.92 1681.93 2163.15 1681.93 2172.91 1656.09 2172.91 1668.76 2188.03 1608.8 2191.9 1654.63 2196.37 1643.91" opacity=".5"/><path fill="#f1f2f2" d="M2319.67,1233.3c-3.36,17.58-28.75,31.25-59.96,31.25c-31.23,0-57.01-13.67-59.98-31.25
									c1.48-0.46,3.41-0.96,4.9-1.41c22.42-4.9,42.38-6.4,51.67-6.86c0,0,1.02,0,3.41,0c1.97,0,3.41,0,3.41,0
									c9.29,0.46,28.79,1.95,51.21,6.86C2316.3,1232.34,2317.74,1232.84,2319.67,1233.3z"/><linearGradient id="SVGID_00000038382146606534177190000002610453636368675477_" x1="2204.635" x2="2314.33" y1="1243.313" y2="1243.313" gradientUnits="userSpaceOnUse"><stop offset="0" stop-color="#047c80"/><stop offset="1" stop-color="#1c4f76"/></linearGradient><path fill="url(#SVGID_00000038382146606534177190000002610453636368675477_)" d="M2314.33,1231.89
									c-1.93,16.54-25.39,29.71-54.62,29.71c-29.25,0-53.12-13.17-55.08-29.71c22.42-4.9,42.38-6.4,51.67-6.86c0,0,1.02,0,3.41,0
									c1.97,0,3.41,0,3.41,0C2272.4,1225.49,2291.91,1226.98,2314.33,1231.89z"/><path fill="#1f4168" d="M2280.84,1187.3h-10.95c-1.77-4.2-5.86-7.06-10.76-7.06c-4.8,0-8.98,2.87-10.74,7.06h-10.8
								c2.08-9.93,10.99-17.53,21.54-17.53C2269.89,1169.77,2278.72,1177.37,2280.84,1187.3z"/><g><path fill="#fcbf44" d="M2615.91,1427.39l-16.1,8.77l1.43,135.58l1.47,110.2h-261.38l1-110.2l1.5-135.58l-16.08-8.77
									l-68.31-36.07c0,0,22.42-82.4,76.1-127.77c22.42-19.49,50.65-30.25,75.58-36.57c0.46,0,0.46,0,0.94,0
									c1.47-0.46,3.41-1,4.9-1.45c22.42-4.86,42.38-6.36,51.67-6.81c0,0,1.02,0,3.41,0c1.97,0,3.41,0,3.41,0
									c9.29,0.46,28.8,1.95,51.21,6.81c1.97,0.46,3.41,1,5.34,1.45c24.85,5.86,53.15,17.08,76.1,36.57
									c53.6,45.37,76.04,127.77,76.04,127.77L2615.91,1427.39z"/><polygon fill="#208f71" points="2342.34 1571.74 2343.83 1436.15 2327.75 1427.39 2362.82 1369.84" opacity=".5"/><polygon fill="#208f71" points="2601.47 1571.74 2600 1436.15 2616.1 1427.39 2581.01 1369.84" opacity=".5"/><polygon fill="#208f71" points="2425.25 1681.93 2375.47 1681.93 2385.24 1656.09 2385.24 1668.76 2400.36 1608.8 2404.23 1654.63 2408.69 1643.91" opacity=".5"/><path fill="#f1f2f2" d="M2532,1233.3c-3.36,17.58-28.75,31.25-59.96,31.25c-31.23,0-57.03-13.67-59.98-31.25
									c1.47-0.46,3.41-0.96,4.9-1.41c22.42-4.9,42.38-6.4,51.67-6.86c0,0,1.02,0,3.41,0c1.97,0,3.41,0,3.41,0
									c9.29,0.46,28.8,1.95,51.21,6.86C2528.63,1232.34,2530.07,1232.84,2532,1233.3z"/><linearGradient id="SVGID_00000126288093533041215400000013348929173010797701_" x1="2416.962" x2="2526.659" y1="1243.313" y2="1243.313" gradientUnits="userSpaceOnUse"><stop offset="0" stop-color="#047c80"/><stop offset="1" stop-color="#1c4f76"/></linearGradient><path fill="url(#SVGID_00000126288093533041215400000013348929173010797701_)" d="M2526.66,1231.89
									c-1.93,16.54-25.39,29.71-54.62,29.71c-29.25,0-53.12-13.17-55.08-29.71c22.42-4.9,42.38-6.4,51.67-6.86c0,0,1.02,0,3.41,0
									c1.97,0,3.41,0,3.41,0C2484.73,1225.49,2504.24,1226.98,2526.66,1231.89z"/><path fill="#1f4168" d="M2493.17,1187.3h-10.95c-1.79-4.2-5.86-7.06-10.76-7.06c-4.8,0-8.98,2.87-10.74,7.06h-10.8
								c2.08-9.93,10.99-17.53,21.54-17.53C2482.22,1169.77,2491.05,1177.37,2493.17,1187.3z"/></g><g><path fill="#385877" d="M2828.24,1427.39l-16.1,8.77l1.43,135.58l1.48,110.2h-261.38l0.98-110.2l1.52-135.58l-16.1-8.77
									l-68.29-36.07c0,0,22.42-82.4,76.1-127.77c22.42-19.49,50.65-30.25,75.58-36.57c0.46,0,0.46,0,0.94,0
									c1.47-0.46,3.41-1,4.9-1.45c22.42-4.86,42.38-6.36,51.67-6.81c0,0,1.02,0,3.41,0c1.95,0,3.41,0,3.41,0
									c9.29,0.46,28.77,1.95,51.21,6.81c1.97,0.46,3.41,1,5.34,1.45c24.85,5.86,53.14,17.08,76.1,36.57
									c53.6,45.37,76.04,127.77,76.04,127.77L2828.24,1427.39z"/><polygon fill="#208f71" points="2554.64 1571.74 2556.16 1436.15 2540.06 1427.39 2575.15 1369.84" opacity=".5"/><polygon fill="#208f71" points="2813.8 1571.74 2812.32 1436.15 2828.43 1427.39 2793.34 1369.84" opacity=".5"/><polygon fill="#208f71" points="2637.58 1681.93 2587.8 1681.93 2597.57 1656.09 2597.57 1668.76 2612.69 1608.8 2616.55 1654.63 2621.02 1643.91" opacity=".5"/><path fill="#f1f2f2" d="M2744.33,1233.3c-3.37,17.58-28.75,31.25-59.96,31.25c-31.23,0-57.03-13.67-59.98-31.25
									c1.47-0.46,3.41-0.96,4.9-1.41c22.42-4.9,42.38-6.4,51.67-6.86c0,0,1.02,0,3.41,0c1.95,0,3.41,0,3.41,0
									c9.29,0.46,28.77,1.95,51.21,6.86C2740.96,1232.34,2742.39,1232.84,2744.33,1233.3z"/><linearGradient id="SVGID_00000023279188907565828940000005606510443539023526_" x1="2629.29" x2="2738.986" y1="1243.313" y2="1243.313" gradientUnits="userSpaceOnUse"><stop offset="0" stop-color="#047c80"/><stop offset="1" stop-color="#1c4f76"/></linearGradient><path fill="url(#SVGID_00000023279188907565828940000005606510443539023526_)" d="M2738.99,1231.89
									c-1.93,16.54-25.39,29.71-54.62,29.71c-29.25,0-53.12-13.17-55.08-29.71c22.42-4.9,42.38-6.4,51.67-6.86c0,0,1.02,0,3.41,0
									c1.95,0,3.41,0,3.41,0C2697.06,1225.49,2716.55,1226.98,2738.99,1231.89z"/><path fill="#1f4168" d="M2705.5,1187.3h-10.95c-1.79-4.2-5.88-7.06-10.76-7.06c-4.8,0-8.98,2.87-10.76,7.06h-10.78
								c2.08-9.93,10.99-17.53,21.55-17.53C2694.55,1169.77,2703.38,1177.37,2705.5,1187.3z"/><g><path fill="#1f4168" d="M2263.18 1206.25l-.83-.83c0 0-2.72-1.41-3.22-1.41-1.25 0-2.58-.17-3.68-.62-4.84-1.5-8.21-5.98-8.21-11.26 0-1.75.37-3.37 1.14-4.82h-10.8c-.42 1.58-.58 3.2-.58 4.82 0 3.99 1.14 7.85 3.03 11.26 3.22 5.44 8.73 9.47 15.04 10.55v6.34c-19.5.51-37.35 4.6-51.75 11.1.13.13.26.38.51.76.38.64.89 1.41 1.28 2.3.76 1.4 1.53 2.81 1.53 2.81s.77 2.3 1.91 4.34c.38.64.89 1.28 1.27 1.79h99.39l2.04-2.93 2.3-3.45c0 0 2.04-2.68 2.93-4.46.13-.13.13-.38.26-.51-14.8-6.89-33.16-11.35-53.57-11.74V1206.25zM2475.51 1206.25l-.83-.83c0 0-2.72-1.41-3.22-1.41-1.25 0-2.58-.17-3.68-.62-4.84-1.5-8.21-5.98-8.21-11.26 0-1.75.37-3.37 1.14-4.82h-10.8c-.41 1.58-.58 3.2-.58 4.82 0 3.99 1.14 7.85 3.03 11.26 3.22 5.44 8.73 9.47 15.04 10.55v6.34c-19.51.51-37.36 4.59-51.77 11.1.13.13.25.38.51.76.38.64.89 1.41 1.28 2.3.76 1.4 1.53 2.81 1.53 2.81s.76 2.3 1.91 4.34c.38.64.89 1.28 1.28 1.79h99.39l2.04-2.93 2.3-3.45c0 0 2.04-2.68 2.93-4.46.13-.13.13-.38.26-.51-14.66-6.89-33.15-11.35-53.55-11.74V1206.25zM2687.84 1220.28v-14.03l-.83-.83c0 0-2.72-1.41-3.22-1.41-1.25 0-2.58-.17-3.68-.62-4.84-1.5-8.21-5.98-8.21-11.26 0-1.75.37-3.37 1.12-4.82h-10.78c-.42 1.58-.58 3.2-.58 4.82 0 3.99 1.14 7.85 3.03 11.26 3.22 5.44 8.73 9.47 15.04 10.55v6.34c-19.52.51-37.38 4.59-51.67 11.1.13.13.25.38.51.76.38.64.89 1.41 1.28 2.3v.13c.77 1.4 1.4 2.68 1.4 2.68s.76 2.3 1.91 4.34c.38.64.89 1.28 1.28 1.79h99.52l1.66-2.55 2.55-3.83c0 0 2.04-2.68 3.06-4.46.13-.13.13-.38.26-.51C2726.7 1225.13 2708.1 1220.66 2687.84 1220.28z"/></g></g></g></g><g opacity=".2"><linearGradient id="SVGID_00000034060171810051660090000010843537672310846137_" x1="171.292" x2="2213.006" y1="2455.59" y2="-1166.023" gradientUnits="userSpaceOnUse"><stop offset="0" stop-color="#b0b0ff"/><stop offset="1" stop-color="#fff"/></linearGradient><path fill="url(#SVGID_00000034060171810051660090000010843537672310846137_)" d="M948.5,1042.07
						c149.24-79.42,300.13-155.67,451.88-230.17c19.66-9.65,39.38-19.2,59.07-28.8H768.9v357.95
						C828.44,1107.48,888.13,1074.2,948.5,1042.07z"/><linearGradient id="SVGID_00000176736490034987156560000010730811384397278651_" x1="920.466" x2="2962.182" y1="2877.943" y2="-743.673" gradientUnits="userSpaceOnUse"><stop offset="0" stop-color="#b0b0ff"/><stop offset="1" stop-color="#fff"/></linearGradient><path fill="url(#SVGID_00000176736490034987156560000010730811384397278651_)" d="M857.66,1860.63
						c153.17-80.79,308.53-157.34,465.02-231.47c537.07-254.4,1082-493.82,1630.39-722.99V783.1h-743.72
						c-76.85,36.5-153.73,72.93-230.58,109.44c-305.45,145.14-610.28,291.97-908.24,452.08
						c-101.48,54.53-201.3,111.96-301.64,168.47v394.31C798.57,1891.65,828.25,1876.15,857.66,1860.63z"/><linearGradient id="SVGID_00000141429477196978109580000006040643509715301310_" x1="1451.901" x2="3493.617" y1="3177.545" y2="-444.07" gradientUnits="userSpaceOnUse"><stop offset="0" stop-color="#b0b0ff"/><stop offset="1" stop-color="#fff"/></linearGradient><path fill="url(#SVGID_00000141429477196978109580000006040643509715301310_)" d="M2874.13,1288.85
						c-71.82,30.6-143.55,61.42-215.18,92.45c-141.16,61.14-282.21,122.62-422.43,185.89
						c-279.52,126.13-559.95,250.38-836.31,383.38c-49.31,23.73-98.44,47.86-147.46,72.2h1700.32v-767.42
						C2926.74,1266.47,2900.43,1277.64,2874.13,1288.85z"/></g><g><path fill="#d16f52" d="M1094.06,1361.77c0,0-17.97-11.19-15.32-23c2.65-11.81,36.5,15.69,36.5,15.69
					S1101.31,1367.52,1094.06,1361.77z"/><path fill="#f18a66" d="M446.65,1456.89c0,0-107.2,110.27-69.85,148.9c37.35,38.62,142.22-73.41,142.22-73.41L446.65,1456.89z"/><path fill="#1d1b2c" d="M778.18,2379.04c-6.75,2.9-11.67-9.03-11.67-9.03l1.37-15.32l31.93-55.61c0,0,12.48-1.07,18.23,10.91
						c0.45,0.94,0.91,1.88,1.36,2.85c0.02,0.06,0.05,0.09,0.07,0.16c1.74,3.57,3.59,7.29,5.44,11.02
						c4.36,8.8-25.25,28.86-21.56,35.36c0.18,0.31,0.36,0.63,0.54,0.98c1.29,2.33,2.49,4.92,3.65,7.69
						c8.71,20.68,33.08,25.22,22.09,34.99C816.45,2414.79,784.91,2376.14,778.18,2379.04z"/><path fill="#3d2509" d="M630.54,1786.1c0,0,63.76,92.75,178.97,253.34c-13.28,79.11-28.39,144.31-28.21,281.45l36.98,19.57
					c0,0,194.21-170.18,194.54-378.26c0.23-143.21-84.53-206.73-98.74-240.72C879.24,1638.09,630.54,1786.1,630.54,1786.1z"/><path fill="#1d1b2c" d="M527.07,2510.07c-5.39,4.99-14.02-4.59-14.02-4.59l-3.85-14.89l11.4-63.11c0,0,11.4-5.2,20.84,4.15
						c0.74,0.73,1.49,1.46,2.24,2.22c0.04,0.05,0.08,0.07,0.12,0.12c2.84,2.77,5.84,5.66,8.83,8.55
						c7.06,6.83-14.09,35.67-8.43,40.55c0.28,0.24,0.55,0.47,0.84,0.74c2,1.76,4,3.8,6.02,6.02c15.15,16.55,39.63,12.64,32.56,25.54
						C575.12,2530.89,532.43,2505.08,527.07,2510.07z"/><path fill="#5e3e13" d="M555.41,1709.64c0,0-106.53,243.31-40.17,740.36l38.85,4.78c0,0,286.66-602.63,287.43-693.01
					C842.29,1671.41,555.41,1709.64,555.41,1709.64z"/><path fill="#fba31c" d="M741.47,1325.42c0,0-127.6-40.43-189.19,9.53c-0.04,0.03-131.01,118.26-150.37,167.46
					c-7.04,17.87,65.21,84.74,89.49,69.32c5.97-3.79,24.67-11.45,30.82-24.96c-0.49,26.86-7.48,13.17-6.79,38.73
					c1.56,54.41,11.9,106,36.38,141.89c44.47,65.14,142.13,87.33,229.65,87.57C995.71,1815.55,861.32,1348.44,741.47,1325.42z"/><path fill="#fcbf44" d="M626.6,1291.51c0,0,36.5,12.04,33.02,32.9c-3.48,20.86-77.63,16.71-75.89-4.97
					C585.47,1297.76,626.6,1291.51,626.6,1291.51z"/><path fill="#fff" d="M821.81,1418.81c-6.01,13.29-17.98,36.83-36.13,30.97c-3.67-1.19-6.96-3.27-10.53-4.7
							c-5.04-2.02-10.47-2.85-15.87-3.03c-5-0.17-10.01,0.19-14.98,0.64c-3.19,0.28-5.89,0.4-8.81,1.79
							c-3.15,1.51-4.05,3.42-5.91,6.31c-9.55,14.89-26.27,12.43-41.57,10.51c-6.06-0.76-12.39-1.24-18.23,0.95
							c-5.16,1.94-9.34,5.72-14.02,8.52c-8.18,4.89-17.22,7.4-26.72,7.69c-4.06,0.12-4.52-6.18-0.44-6.3
							c11.04-0.33,19.97-4.11,29.01-10.19c7.19-4.84,14.11-7.75,22.91-7.58c8.8,0.17,17.43,2.76,26.24,2.3
							c4.72-0.25,9.53-1.22,13.29-4.25c3.25-2.61,4.68-6.44,7.2-9.64c4.9-6.23,12.49-6.13,19.81-6.69
							c8.32-0.63,16.99-0.8,25.13,1.37c8.88,2.37,17.86,10.83,26.68,4.16c7.97-6.03,13.26-16.76,17.27-25.63
							C817.82,1412.3,823.48,1415.1,821.81,1418.81L821.81,1418.81z"/><path fill="#fff" d="M833.17,1446.19c-6.01,13.29-17.98,36.83-36.13,30.97c-3.67-1.19-6.96-3.27-10.53-4.7
							c-5.04-2.02-10.47-2.85-15.87-3.04c-5-0.17-10.01,0.19-14.98,0.64c-3.19,0.28-5.89,0.4-8.81,1.79
							c-3.15,1.51-4.05,3.42-5.91,6.31c-9.55,14.89-26.27,12.43-41.57,10.51c-6.06-0.76-12.39-1.24-18.23,0.95
							c-5.16,1.94-9.34,5.72-14.02,8.52c-8.18,4.89-17.22,7.4-26.73,7.69c-4.05,0.12-4.52-6.18-0.44-6.3
							c11.04-0.33,19.96-4.11,29.01-10.19c7.19-4.84,14.11-7.75,22.91-7.58c8.8,0.17,17.43,2.76,26.24,2.3
							c4.72-0.25,9.53-1.22,13.29-4.25c3.25-2.61,4.68-6.44,7.2-9.64c4.9-6.23,12.49-6.13,19.81-6.69
							c8.33-0.63,16.99-0.8,25.13,1.37c8.88,2.37,17.87,10.83,26.68,4.16c7.97-6.03,13.26-16.76,17.27-25.63
							C829.18,1439.69,834.84,1442.48,833.17,1446.19L833.17,1446.19z"/><path fill="#385877" d="M550.83,1666.3c3.99,36.87-22.67,69.98-59.54,73.97c-36.87,3.98-69.99-22.67-73.97-59.54
							c-3.99-36.87,22.67-69.99,59.54-73.97C513.72,1602.78,546.84,1629.44,550.83,1666.3z"/><polygon fill="#1f4168" points="533.62 1705.28 673.67 1900.98 736.33 1894.21 610.14 1681.64"/><polygon fill="#385877" points="736.33 1894.21 765.84 1862.47 632.73 1667.11 610.14 1681.64"/><polygon fill="#385877" points="680.06 1740.27 692.42 1731.9 670.9 1704.9 623.36 1710.04"/><polygon fill="#1d1b2c" points="656.98 1706.4 680.06 1740.27 646.86 1743.86 623.36 1710.04"/><path fill="#fff" d="M876.07,1723.26c-172.74-33.99-271.99,4.68-328.03,18.89c-38.19,9.7-85.66-33.67-102.25-80.15
							c-12.18-34.08-7.77-69.8,28.97-87.53c117.73-56.81,249.7-219.16,249.7-219.16l14.27,34.58L876.07,1723.26z"/><path fill="#385877" d="M986.05,1706.73c-98.01,23.81-202.53-59.94-233.37-187.02c-30.88-127.11,23.59-249.41,121.63-273.23
							c98.05-23.82,202.53,59.94,233.41,187.01C1138.56,1560.61,1084.1,1682.91,986.05,1706.73z"/><g><path fill="#1d1b2c" d="M918.79,1371.06l-179.12,52.79c0,0-20.35,188.94,101.86,243.78l123.8-91.14L918.79,1371.06z"/><path fill="#1f4168" d="M1017.91,1455.31c-13.67-56.44-59.58-93.99-102.31-83.57c-42.69,10.38-66.3,64.74-52.59,121.18
								c12.88,53.03,54.12,89.31,94.5,84.95c2.58-0.28,5.22-0.75,7.8-1.38c38.21-9.24,61.08-53.68,55.71-103.34
								C1020.4,1467.26,1019.37,1461.3,1017.91,1455.31z M959.92,1554.2c-30.41,7.4-63.89-22.53-74.62-66.69
								c-10.73-44.15,5.3-86.13,35.75-93.49c1.69-0.41,3.38-0.71,5.05-0.89c14.48-1.56,29.36,4.9,41.84,16.96
								c12.49,12.1,22.66,29.76,27.72,50.62C1006.36,1504.91,990.33,1546.84,959.92,1554.2z"/><path fill="#fff" d="M959.91,1554.21c-2.18,0.54-4.54,0.91-6.72,0.91c-28.33,2-57.93-26.69-67.92-67.55
								c-10.71-44.13,5.27-86.26,35.77-93.52c1.64-0.36,3.45-0.73,5.08-0.91c14.53-1.63,29.24,4.9,41.77,16.89
								c12.53,12.17,22.7,29.78,27.78,50.66C1006.4,1505,990.42,1546.76,959.91,1554.21z"/><path fill="#fff" d="M959.91,1554.21c-2.18,0.54-4.54,0.91-6.72,0.91c-28.33,2-57.93-26.69-67.92-67.55
								c-10.71-44.13,5.27-86.26,35.77-93.52c1.64-0.36,3.45-0.73,5.08-0.91c14.53-1.63,29.24,4.9,41.77,16.89
								c12.53,12.17,22.7,29.78,27.78,50.66C1006.4,1505,990.42,1546.76,959.91,1554.21z"/><polygon fill="#231f20" points="915.6 1371.74 878.74 1436.28 738.11 1534.7 739.67 1423.85" opacity=".3"/></g><path fill="#c1c1c1" d="M738.12,1534.7l-292.33,127.29c-12.18-34.08-7.77-69.8,28.97-87.53
							c117.73-56.81,249.7-219.16,249.7-219.16l14.27,34.58C726.72,1438.46,718.28,1499.37,738.12,1534.7z" opacity=".3"/><path fill="#1f4168" d="M1123.53,1429.67c-33.63-138.38-152.21-228.42-264.86-201.06c-112.65,27.36-176.73,161.73-143.14,300.11
							c33.6,138.39,152.17,228.42,264.83,201.06C1093.01,1702.43,1157.12,1568.06,1123.53,1429.67z M986.05,1706.73
							c-98.01,23.81-202.53-59.94-233.37-187.02c-30.88-127.11,23.59-249.41,121.63-273.23c98.05-23.82,202.53,59.94,233.41,187.01
							C1138.56,1560.61,1084.1,1682.91,986.05,1706.73z"/><g><path fill="#f18a66" d="M644.65,1761.3L644.65,1761.3c-2.45-1.4-5.72-3.76-10.18-7.71c0,0,0.04,0.01,0.11,0.05
							c-2.29-1.89-4.55-4.01-6.7-6.25c-3.71-3.86-6.21-6.89-7.86-9.12c0-0.02-0.01-0.02-0.02-0.02c-2.43-3.3-3.02-4.86-3.02-4.86
							s-45.94-25.08-50.61-30.08c-2.8-6.82,15.14-24.93,15.14-24.93c6.26-1.39,43.65,26.56,54,26.48
							c12.07-0.1,36.39-14.2,36.55-5.01c0.17,9.21-18.8,13.01-18.8,13.01s0.23,0.07,0.65,0.24c2.55,0.95,12.07,4.78,19.21,11.04
							l0.01,0.01c1.97,1.75,3.77,3.68,5.18,5.8c0.24,0.38,0.49,0.75,0.71,1.13c0.4,0.68,0.76,1.39,1.06,2.12
							c0.05,0.11,0.11,0.24,0.15,0.36c0.15,0.36,0.29,0.73,0.41,1.1l0.01,0.04c0,0.01,0,0.01-0.01,0.02
							c0.04,1.06-0.25,2.34-1.17,3.82c-2.98,4.76-7.09,3.03-7.09,3.03s2.42,3.65-0.57,7.13c-3.17,3.7-5.83,1.2-5.83,1.2
							s1.26,4.56-1.35,7.38c-2.75,2.98-5.78,0.02-5.78,0.02s1.36,3.1-1.83,6.62C654.16,1767.05,644.65,1761.3,644.65,1761.3z"/><path fill="#fff" d="M660.57 1747.35c.05.15.02.32-.14.46-1.84 1.6-3.51 3.19-4.11 5.63-.2.81-.43 1.73-1.19 2.2-.35.22-.75.29-1.13.4-.52.15-.89.45-1.28.81-1.28 1.2-2.33 2.67-3.16 4.21-.38.7-.73 1.44-1.04 2.21 2.98 1.3 6.86 2.46 8.52.63 3.19-3.52 1.83-6.62 1.83-6.62s3.03 2.95 5.78-.02c2.61-2.82 1.35-7.38 1.35-7.38s2.66 2.5 5.83-1.2c2.99-3.47.57-7.13.57-7.13s4.11 1.73 7.09-3.03c.92-1.48 1.21-2.75 1.17-3.82 0-.01 0-.01.01-.02l-.01-.04c-.12-.37-.26-.74-.41-1.1-.05-.12-.1-.25-.15-.36-.3-.73-.67-1.43-1.06-2.12-.23-.38-.47-.76-.71-1.13-.34 1.31-1.05 2.59-1.77 3.69-.82 1.24-1.85 2.47-3.29 2.99-1.51.55-3.14.16-4.67.55-1.6.42-2.71 1.95-3.11 3.5-.35 1.34-.13 2.69-1.01 3.86-.98 1.3-2.49 2.01-3.85 2.82C660.59 1747.33 660.58 1747.34 660.57 1747.35zM670.05 1698.4c0 0-6.61 2.93-7.75 2.28-1.13-.64-.63-2.15-.63-2.15S668.39 1696.76 670.05 1698.4z" opacity=".2"/></g><path fill="#f18a66" d="M373.13,1562.47c15.56-34.07,259.94,146.52,259.94,146.52l-16.1,24.39
					C616.97,1733.38,318.28,1682.55,373.13,1562.47z"/><g><path fill="#f18a66" d="M1081.86,1427.61c-0.53-6.81,13.08-15.42,13.08-15.42s-20.88,9.91-22.36,2.36
						c-1.19-6.09,10.35-12.92,14.87-15.34c-5.27,2.57-20.51,8.96-21.69-2.72c-0.72-7.16,16.42-16.12,16.42-16.12
						s-21.52,8.24-22.37,0.11c-1.57-15.08,35.27-30.21,35.27-30.21s31.37-1.47,21.67,11.62c0,0,14.4-2.01,13.53,7.6
						c-0.87,9.6-5.91,11.47-5.91,11.47s9.34-0.16,10.57,6.05c1.23,6.21-6.22,7.33-6.22,7.33s9.85,4.8,5.43,12.68
						c-3.52,6.28-16.32,12.99-21.39,15.47c0.04,0.12,0.06,0.2,0.06,0.2s-0.82,0.31-2.17,0.81l0,0l0,0
						C1103.7,1426.03,1082.3,1433.31,1081.86,1427.61z"/><path fill="#fff" d="M1070.54 1369.84l3.31 10.82c0 0-9.78 3.4-12.08-.49C1059.47 1376.29 1070.54 1369.84 1070.54 1369.84zM1075.68 1388.42c0 0 5.91 8.08 4.06 10.07-1.85 1.99-8.95 3.88-11.18.05C1066.32 1394.69 1074.45 1388.34 1075.68 1388.42zM1078.79 1407.51c0 0 4.16 3.39 3.4 6.94 0 0-5.95 3.4-7.59.19C1072.96 1411.43 1078.79 1407.51 1078.79 1407.51zM1086.73 1421.86c0 0 3.36 2.79 2.3 5.28 0 0-2.89 2.46-5.35.21C1081.23 1425.11 1086.73 1421.86 1086.73 1421.86z" opacity=".2"/></g><g><path fill="#f18a66" d="M640.52,1180.16c0,0-2.6,17.58,3.51,25.36c6.11,7.78,17.36,12.25,12.24,17.05
									c-5.11,4.81,1.13,8.77,1.13,8.77l7.24,31.98c0,0-61.85,30.19-78.52,18.38c-16.67-11.82-29.1-74.55-7.27-90.42
									C600.69,1175.42,640.52,1180.16,640.52,1180.16z"/><path fill="#f18a66" d="M591.25,1281.43l8.58,34.56c0,0,18.8,20.64,31.4,10.55c12.6-10.09,12.01-19,12.01-19l-7.62-30.72
									L591.25,1281.43z"/><path fill="#1d1b2c" d="M578.51 1251.63l-.27-14.18c0 0 1.28 12.88 11.22 16.68 9.94 3.8 13.12 21.66-.28 26.19C575.79 1284.86 578.51 1251.63 578.51 1251.63zM596.25 1281.47L596.25 1281.47l39.68-2.42 4.45 17.01-24.51-2.37C607.78 1292.9 600.52 1288.38 596.25 1281.47zM639.26 1187.35l.74 2.96.74 7.13-24.16-.35c-7.52-.11-14.75-2.97-20.3-8.04l-.15-.14L639.26 1187.35zM599.93 1236.21l-4.28-11.46c0 0 14.1 16.26 26.61 17.94 12.51 1.68 10.63-10.48 19.7-13.94 9.07-3.47 13.04-.8 13.04-.8l-18.62 29.52L599.93 1236.21z" opacity=".1"/><path fill="#1d1b2c" d="M664.17,1234.3c3.45,5.36,5.85,13.34,6.57,22.64c1.64,21.86-39.13,27.32-49.48,27.41
									c-0.17-0.01-0.34-0.03-0.5-0.01c-9.45-0.11-29.24-54.74-37.46-52.7c-8.21,2.04-6.18,10.25,3.86,33.87
									c10.04,23.61-7.88,14.49-7.88,14.49c-7.05-2.23-12.9-5.74-17.79-10.16c-25.04-22.65-24.51-68.89-25.43-86.75
									c-1.11-21.29,19.07-20.06,19.07-20.06s-11.96-7.45,50.52-23.32c30.14-7.65,43.48,0.27,48.21,11.72
									c5.15,12.23,0.38,28.49-4.08,33.75c-8.62,10.16-31.48,6.42-49.69,4.67c-18.21-1.75-8.16,26.07-8.16,26.07
									c2.71,13.4,21.76,30.09,32.65,33.33c10.89,3.23,8.38-8.35,20.76-18.72C652.54,1224.48,659.38,1226.88,664.17,1234.3z"/><path fill="#1d1b2c" d="M605.45,1223.76c-0.49,2.89,2.67,5.83,7.04,6.57c4.37,0.74,8.32-1.01,8.8-3.9
						c0.49-2.89-2.66-5.83-7.04-6.57C609.88,1219.12,605.94,1220.87,605.45,1223.76z" opacity=".1"/><g><path fill="#fff" d="M655.74,1255.17c-5.6-0.07-9.51-5.53-9.67-5.76c-0.76-1.08-0.5-2.57,0.58-3.33
							c1.08-0.77,2.57-0.51,3.34,0.57c0.75,1.06,3.31,3.71,5.95,3.73c1.93-0.04,3.88-1.56,5.79-4.51c0.72-1.11,2.2-1.44,3.31-0.71
							c1.11,0.72,1.43,2.2,0.71,3.32c-2.83,4.38-6.11,6.63-9.74,6.7C655.93,1255.17,655.84,1255.17,655.74,1255.17z"/></g><path fill="#1d1b2c" d="M628.95 1207.52c0 2.93-2.01 5.29-4.48 5.29-2.47 0-4.48-2.36-4.48-5.29 0-2.93 2.01-5.3 4.48-5.3.69 0 1.35.18 1.93.53-.87.26-1.53 1.2-1.53 2.33 0 1.32.91 2.4 2.04 2.4.82 0 1.54-.59 1.85-1.42C628.88 1206.52 628.95 1207.01 628.95 1207.52zM633.74 1197.55c0 0-23.12-1.16-25.44-3.44-2.33-2.28 4.91-7.08 15.1-4.5C633.59 1192.18 636.38 1197.47 633.74 1197.55z"/></g></g><g><path fill="#1d1b2c" d="M1697.13 1745.63c-29.19 6.37-51.88-2.63-53.37-30.39l38.86-8.48c.75 9.7 6.51 11.79 13.2 10.33 6.51-1.42 11.53-5.86 11.53-12-.18-20.98-63.78 2.76-63.22-42.93 0-25.67 21.39-44.1 49.09-50.14 30.12-6.57 49.83 3.82 51.13 29.58l-39.61 8.64c-.37-8.1-5.39-10.73-12.09-9.27-5.39.99-9.67 5.09-9.67 11.41 0 19.53 63.04-.55 63.04 41.49C1746.04 1716.92 1728.19 1738.86 1697.13 1745.63zM1845.9 1690.48l-46.49 10.14-7.07 22.93-38.3 8.36 47.79-141.55 42.02-9.17 47.6 120.73-38.49 8.4L1845.9 1690.48zM1822.65 1625.25l-13.95 45.45 28.08-6.13L1822.65 1625.25zM1939.8 1560.26v103.22l40.72-8.89v27.9l-77.17 16.84v-131.12L1939.8 1560.26zM2078.52 1559.2l-47.42 10.35v21.39l41.84-9.13v27.71l-41.84 9.13v23.62l47.42-10.35v29.2l-83.86 18.3V1548.3l83.86-18.3V1559.2z"/><polygon fill="#1d1b2c" points="2416.96 1402.91 1305.01 1645.52 1305.01 1364.14 2416.96 1121.53"/><polygon fill="#1d1b2c" points="2416.96 1213.03 1305.01 1455.65 1305.01 1174.27 2416.96 931.65"/><g><path fill="#fcbf44" d="M1537.9 1342.33l-85.71 18.7V1187.9l83.01-18.11c35.12-7.66 56.73 3.82 56.73 32.56 0 20.88-12.28 37.31-29.23 45.67 20.63.16 33.15 14.88 33.15 34.52C1595.85 1311.76 1574.99 1334.24 1537.9 1342.33zM1524.64 1210.4l-24.32 5.31v30.45l24.32-5.31c11.78-2.57 18.17-8.88 18.17-18.95C1542.81 1211.6 1536.43 1207.83 1524.64 1210.4zM1528.08 1274.24l-27.75 6.06v31.43l28-6.11c12.03-2.63 18.17-8.87 18.17-19.19C1546.49 1275.87 1539.87 1271.66 1528.08 1274.24zM1665.12 1141.44v136.3l53.78-11.74v36.83l-101.92 22.24v-173.13L1665.12 1141.44zM1847.11 1246.62l-61.39 13.4-9.33 30.28-50.59 11.04 63.11-186.9 55.5-12.11 62.87 159.41-50.84 11.09L1847.11 1246.62zM1816.42 1160.49L1798 1220.5l37.08-8.09L1816.42 1160.49zM2003.31 1065.93c43.46-9.48 74.41 8.81 83 46.23l-51.82 11.31c-6.14-11.68-17.68-16.28-31.93-13.17-22.1 4.82-36.59 25.17-36.59 51.7 0 26.77 14.49 40.8 36.59 35.97 14.24-3.11 25.78-12.75 31.93-27.1l51.82-11.31c-8.59 41.17-39.54 72.96-83 82.44-52.07 11.36-86.2-17.53-86.2-69.35C1917.11 1121.08 1951.24 1077.29 2003.31 1065.93zM2157.31 1131.29v75.89l-48.13 10.5v-173.13l48.13-10.5v74.65l53.79-86.39 55.5-12.11-63.61 97.87 66.8 74.57-58.2 12.7L2157.31 1131.29z"/></g><g><path fill="#fff" d="M1499.96 1401.88l94.27-20.57v30.76l-55.61 12.13v24.45l41.02-8.95v29.39l-41.02 8.95v54.43l-38.66 8.43V1401.88zM1671.54 1364.44c34.51-7.53 51.87 8.4 51.87 33.25 0 18.15-9.86 36.07-30.56 46.9l31.35 47.39-43.19 9.42-27.61-45.25-4.14.9v51.28l-38.66 8.43v-139.03L1671.54 1364.44zM1668.39 1397.47l-19.13 4.17v28.99l19.13-4.17c10.45-2.28 15.77-8.57 15.77-18.03C1684.17 1399.75 1678.84 1395.19 1668.39 1397.47zM1740.98 1349.29l38.66-8.43v139.03l-38.66 8.43V1349.29zM1929.33 1377.62c0 40.23-28.2 75.77-72.58 85.45l-55.02 12.01v-139.03l55.02-12.01C1901.13 1314.35 1929.33 1336.79 1929.33 1377.62zM1853.79 1429.59c22.29-4.86 36.29-20.54 36.29-43.41 0-23.08-14-32.84-36.29-27.98l-13.41 2.93v71.4L1853.79 1429.59zM2034.65 1401.57l-49.3 10.76-7.5 24.32-40.62 8.86 50.68-150.09 44.57-9.72 50.49 128.02-40.82 8.91L2034.65 1401.57zM2010 1332.4l-14.79 48.19 29.77-6.5L2010 1332.4zM2085.35 1274.15l44.18-9.64 24.45 48.3 24.45-58.98 43.59-9.51-48.91 105.53v44.18l-38.85 8.48v-44.18L2085.35 1274.15z"/></g></g><g><polygon fill="#fcbf44" points="2744.11 2533.93 2394.02 2521.61 2442.84 2038.19 2745.33 2048.84"/><polygon fill="#fba31c" points="2745.33 2048.84 2759.48 2058.91 2769.13 2049.68 2812.16 2463.3 2779.17 2482.13 2744.11 2533.93"/><polygon points="2745.33 2048.84 2779.17 2482.13 2744.11 2533.93" opacity=".2"/><path d="M2501.48 2124.16c-.31 5.99-5.9 10.66-12.48 10.43-6.58-.23-11.67-5.28-11.36-11.27.31-5.99 5.9-10.66 12.48-10.43C2496.7 2113.12 2501.79 2118.17 2501.48 2124.16zM2681.92 2126.21c-.31 5.99-5.9 10.66-12.48 10.43-6.58-.23-11.67-5.28-11.36-11.27.31-5.99 5.9-10.66 12.48-10.43C2677.14 2115.17 2682.23 2120.22 2681.92 2126.21z"/><path fill="#fff" d="M2486.67,2125.2c-4.75,39.08,11.52,79.32,42.86,106.29c13.69,11.79,37.16,29.41,55.87,16.18
							c8.83-6.24,15.69-16,21.96-24.27c6.6-8.71,11.98-17.95,15.03-28.18c3.96-13.29,4.6-27.56,13.66-39.15
							c8.87-11.34,22.74-18.72,35.69-25.62c3-1.6,2.14-9.04-1.1-7.32c-11.59,6.18-23.36,12.49-32.66,21.45
							c-9.07,8.74-13.69,19.16-16.52,30.73c-3.48,14.22-6.42,26.94-15.29,39.38c-7.24,10.15-18.72,28.84-33.28,30.32
							c-14.27,1.44-29.72-10.99-39.41-19.17c-9.47-8-17.56-17.26-24.08-27.41c-14.17-22.04-20.38-47.6-17.29-73.05
							C2492.67,2120.76,2487.22,2120.64,2486.67,2125.2L2486.67,2125.2z"/><g><polygon fill="#385877" points="2801.23 2571.49 2501.66 2547.77 2561.67 2135.32 2820.5 2155.82"/><polygon fill="#1d1b2c" points="2820.5 2155.82 2832.26 2164.98 2840.87 2157.43 2862.2 2513.52 2833.22 2528.42 2801.23 2571.49"/><polygon points="2820.5 2155.82 2833.22 2528.42 2801.23 2571.49" opacity=".2"/><path d="M2608.69 2211.2c-.49 5.12-5.45 8.91-11.09 8.47-5.63-.45-9.8-4.96-9.31-10.08.49-5.12 5.45-8.91 11.09-8.47C2605.02 2201.56 2609.18 2206.07 2608.69 2211.2zM2763.25 2219.74c-.49 5.12-5.45 8.91-11.09 8.47-5.63-.45-9.8-4.96-9.31-10.08.49-5.12 5.45-8.91 11.09-8.47C2759.57 2210.1 2763.74 2214.62 2763.25 2219.74z"/><path fill="#fff" d="M2594.12,2216.36c-5.43,33.33,7.11,68.39,33.03,92.6c11.33,10.58,30.83,26.5,47.33,15.81
							c7.78-5.05,14.01-13.17,19.67-20.04c5.96-7.23,10.89-14.97,13.86-23.63c3.86-11.25,4.9-23.46,13.07-33.08
							c8-9.41,20.15-15.25,31.48-20.72c2.62-1.27,2.15-7.68-0.69-6.31c-10.15,4.89-20.46,9.89-28.74,17.25
							c-8.07,7.18-12.4,15.94-15.23,25.77c-3.47,12.06-6.44,22.87-14.48,33.22c-6.56,8.44-17.05,24.07-29.58,24.83
							c-12.28,0.74-25.09-10.45-33.11-17.8c-7.84-7.18-14.45-15.41-19.69-24.33c-11.38-19.39-15.81-41.51-12.28-63.21
							C2599.41,2212.76,2594.75,2212.47,2594.12,2216.36L2594.12,2216.36z"/></g></g><g><path fill="#1d1b2c" d="M2963.7,1212.98c0,0-154.46-87.16-89.37-174.4c0,0-43.66-90.5,36.12-123.02
							c79.78-32.51,94.19,24.91,94.19,24.91s176.95-113.65,175.9,116.69c0,0-8.4,65.82,86.58,12.46
							c94.99-53.36,84.64,278.27-90.62,272.1C3001.25,1335.56,2963.7,1212.98,2963.7,1212.98z"/><path fill="#f18a66" d="M2727.1,982.59c0.47-3.16,1.11-6.29,1.98-9.18l-0.01-0.01c0-0.01,0-0.01,0-0.02
									c0.03-0.15,0.18-0.92,0.41-2.03l0.01-0.01c0.19-0.89,0.45-1.97,0.76-3.11l0,0c0,0,2.69-13.11,6.65-13.87
									c3.95-0.77,5.34,1.93,5.34,1.93s2.09-3.3,5.83-2.48c3.74,0.81,4.26,3.57,4.26,3.57s1.84-3.09,6.09-2.18
									c4.25,0.91,5.37,4.71,5.37,4.71s3.08-4.49,7.71,0.39c4.61,4.86,0.91,13.99,0.8,14.4c-0.41,1.73-0.9,3.39-1.43,4.96
									c-0.15,0.43-0.22,0.89-0.45,1.28c-16.35,28.04-18.46,81.79-23.77,84.05c0,0-26.67,0.98-28.17-5.46
									c0.81-6.09,13.2-58.36,13.2-58.36S2725.34,994.43,2727.1,982.59z"/><path fill="#fff" d="M2729.08,973.41l-0.01-0.01c0-0.01,0-0.01,0-0.02c0.03-0.15,0.18-0.92,0.41-2.03l0.01-0.01
									c0.19-0.89,0.45-1.97,0.76-3.11l0,0c0,0,2.69-13.11,6.65-13.87c3.95-0.77,5.34,1.93,5.34,1.93s2.09-3.3,5.83-2.48
									c3.74,0.81,4.26,3.57,4.26,3.57s1.84-3.09,6.09-2.18c4.25,0.91,5.37,4.71,5.37,4.71s3.08-4.49,7.71,0.39
									c1.66,1.75,2.23,4.05,2.29,6.29c-1.62-1.95-3.94-3.62-6.41-4.06c-0.63-0.11-1.29-0.14-1.93-0.02
									c-0.73,0.14-1.39,0.48-2.1,0.68c-1.53,0.44-2.81-0.53-4.08-1.28c-1.64-0.97-3.34-1.75-5.29-1.71
									c-1.46,0.03-2.85,0.49-4.25,0.85c-1.47,0.37-2.97,0.52-4.43-0.01c-1.39-0.51-2.67-1.04-4.18-1.01
									c-2.61,0.04-4.64,1.72-6.01,3.82c-0.94,1.45-1.55,3.08-2.2,4.68c-0.84,2.08-1.63,4.18-2.43,6.28
									c-1.36,3.6-2.75,7.14-3.67,10.87c0.04-0.99,0.11-2,0.27-3.08C2727.57,979.43,2728.22,976.29,2729.08,973.41z" opacity=".2"/><path fill="#231f20" d="M2764,992.2c0,0,4.22-9.1-0.11-11.12s-6.36,7.56-17.75,5.71c-15.76-2.56-11.5-14.98-12.35-16.63
								c-0.86-1.65,0.73-5.29,0.73-5.29s0.74,3.91,3.89,4.69c3.15,0.78,12.94,1.44,17.77,3.92c4.36-6.06,16.53-7.64,17.11-3.3
								C2773.87,974.52,2767.77,991.16,2764,992.2z" opacity=".1"/><path fill="#d16f52" d="M2738.03,969.41c-0.76-0.29-1.51-0.58-2.26-0.89c0.75,0.17,1.5,0.35,2.25,0.53
								c0.27-2.04,0.75-4.07,1.39-6.13c0.67-2.11,1.55-4.23,2.73-6.28c-1.03,2.08-1.74,4.18-2.24,6.24
								c-0.49,2.06-0.8,4.11-0.89,6.06l0,0.02c0,0.1-0.05,0.2-0.12,0.29c1.14,0.28,2.28,0.56,3.42,0.83
								c1.4,0.31,2.79,0.63,4.18,0.94c0.44-2.01,1.08-4.01,1.88-6.02c0.87-2.16,1.98-4.33,3.39-6.4c-1.26,2.11-2.18,4.26-2.87,6.39
								c-0.68,2.11-1.16,4.22-1.41,6.24c0.45,0.1,0.9,0.2,1.36,0.29c2.18,0.46,4.38,0.84,6.58,1.17c0.49,0.08,0.99,0.12,1.49,0.18
								c0.65-2.09,1.51-4.15,2.57-6.2c1.07-2.07,2.37-4.11,3.97-6.04c-1.45,1.98-2.57,4.03-3.45,6.08c-0.88,2.04-1.57,4.12-2,6.11
								l0,0.02c-0.01,0.05-0.04,0.1-0.07,0.15c0.27,0.03,0.54,0.07,0.81,0.1c1.11,0.13,2.22,0.19,3.35,0.19
								c-2.23,0.38-4.5,0.31-6.75,0.15c-2.25-0.16-4.48-0.52-6.69-0.96c-2.21-0.45-4.39-1.01-6.54-1.67l-3.2-1.05
								c-0.17-0.07-0.33-0.13-0.5-0.19C2738.24,969.58,2738.1,969.53,2738.03,969.41z"/><path fill="#d16f52" d="M2755.94,974c1.55-2.53,16.21-4.03,16.21-4.03c5,2.05,5.41,16.72,4.09,18.86
								c-4.71,9.55-11.71,14.92-15.07,14.64c0.7-5.26,3.28-12.14,5.69-18.39c-0.22-2.6-1-6.19-3.65-6.25
								C2759.04,978.73,2754.39,976.53,2755.94,974z"/><path fill="#fff" d="M2773.12,981.6c-1.29-1.52-0.13-7.72-2.08-8.16c-9.56-2.15-6.57,2.56-12.03,4.03
								c-0.25,0.07-0.47,0.21-0.72,0.28c-2.02-0.9-3.25-2.27-2.34-3.76c1.55-2.53,16.21-4.03,16.21-4.03
								c4.72,1.94,5.35,15.12,4.29,18.38C2776.58,984.89,2775.36,984.24,2773.12,981.6z" opacity=".2"/><path fill="#fff" d="M2760.63,972.51c0,0-3.88,0.36-4.55,1.77c-0.67,1.42,1.35,1.24,2.61,0.9c1.26-0.33,2.21-0.9,2.21-0.9
								L2760.63,972.51z" opacity=".2"/><path fill="#231f20" d="M2733.16,1002.11c2.39,3.2,8.72,4.52,14.63,5.14c4.49,0.47,8.63-1.17,11.76-3.06
								c-0.5,0.66-1.03,1.3-1.61,1.91c-1.51,1.59-7.71,8.81-13.47,7.68c-8.99-1.77-9.85-9.99-11.35-11.3
								C2733.13,1002.36,2733.14,1002.23,2733.16,1002.11z" opacity=".1"/><path fill="#fba31c" d="M2911.86,1115.41c-51.5,1.44-148.7,88.35-148.7,88.35l-3.61-187.76c0,0-19.7,3.32-31.58-6.66
								c0,0-111.42,173.71-27.05,282.53c84.37,108.82,179.5,8.64,179.5,8.64L2911.86,1115.41z"/><path fill="#0b1244" d="M2882.41,1151.7c0,0-65.7,59.26-77.7,85.54c-10.31,22.6-10.37,86.82,60.22,79.04
							C2935.53,1308.5,2882.41,1151.7,2882.41,1151.7z" opacity=".1"/><path fill="#1d1b2c" d="M3160.63,1952.21c0,0,27.45-6.82,27.99,0.45c0.54,7.27,0.45,15.28,0.45,15.28s24.26,82.4,9.21,79.6
									c-15.05-2.8-38.5-45.94-41.67-61.32C3153.44,1970.84,3148.47,1959.36,3160.63,1952.21z"/><path fill="#1f4168" d="M3153.99,1984.03c0,0,20.49,29.17,33.43,45.28c12.93,16.11,0.91-53.7-7.83-67.99
									c-8.74-14.29-21.04-10.63-24.29-3.26C3152.05,1965.42,3153.99,1984.03,3153.99,1984.03z"/><path fill="#e58598" d="M3161.38,1987.75c0,0,20.18,34.29,22.07,26.13c1.89-8.16-6.17-48.88-19.29-51.85
									C3151.05,1959.06,3161.38,1987.75,3161.38,1987.75z"/><path fill="#f18a66" d="M3160.75,1986.34c0,0-221.02,34.78-317.55-38.38c-37.79-28.64,16.2-297.09,73.94-326.09
								c1.1-0.64,2.22-1.12,3.27-1.5c43.13-14.79,50.64-3.91,134.91,18.56c1.81,1.72,3.35,3.89,4.66,6.34
								c6.81,12.74,6.11,34.34,1.31,59.65c-0.49,2.84-1.06,5.7-1.71,8.65c-16.07,74.62-62.22,174.73-59.2,179.42
								c0.09,0.07,0.09,0.07,0.19,0.14c13.07,2.01,152.87,60.71,163.94,69.04C3175.59,1970.58,3160.75,1986.34,3160.75,1986.34z"/><path fill="#0b1244" d="M3061.29 1704.91c-.49 2.84-1.06 5.7-1.71 8.65-16.07 74.62-62.22 174.73-59.2 179.42-23.36-17.02-118.97-34.29-146.79-36.16-31.2-1.96 23.31-211 63.54-234.96 1.1-.64 2.22-1.12 3.27-1.5 43.13-14.79 50.64-3.91 134.91 18.56 1.81 1.72 3.35 3.89 4.66 6.34C3066.52 1657.87 3065.9 1679.45 3061.29 1704.91zM3164.49 1962.17c-9.15-6.92-114.23-51.14-154.83-66.31-2.93 21.79 21.71 47.15 27.9 70.94 2.76 10.6 7.31 19.62 12.96 27.75 61.61-.58 110.24-8.23 110.24-8.23S3175.59 1970.61 3164.49 1962.17z" opacity=".25"/><g><path fill="#1d1b2c" d="M3368.86,1904.75c0,0,5.51-27.74,12.32-25.14c6.81,2.6,14.02,6.1,14.02,6.1s84.9,13.09,75.96,25.53
									c-8.94,12.43-57.96,15.31-73.22,11.63C3382.67,1919.19,3370.17,1918.8,3368.86,1904.75z"/><path fill="#1f4168" d="M3394.84,1924.3c0,0,35.11-6.14,55.2-10.99c20.08-4.85-48.21-23.67-64.86-21.84
									c-16.65,1.83-18.57,14.52-13.29,20.59C3377.17,1918.14,3394.84,1924.3,3394.84,1924.3z"/><path fill="#ff97a6" d="M3401.36,1919.19c0,0,39.62-3.68,33.04-8.86c-6.58-5.18-46.86-15.21-55.13-4.6
									C3370.99,1916.34,3401.36,1919.19,3401.36,1919.19z"/><path fill="#f18a66" d="M3391.88,1901.05c-11.85-7.14-217.22-23.96-230.41-24.59c-7.41-0.36,21.99-98.91-22.82-133.05
								c-7.64,50.3-204.51-39.67-182.32,6.17c39.92,82.45,69.88,193.1,109.63,220.63c63.36,43.88,353.08-53.28,353.08-53.28
								S3403.81,1908.27,3391.88,1901.05z"/></g><path fill="#5e3e13" d="M3082.33 1460.24c0 0 178.02 120.34 234.39 225.79 0 0-55.26 40.55-41.34 84.03C3289.3 1813.55 3082.33 1460.24 3082.33 1460.24zM2863.51 1469.08c0 0-2.52 209.63-156.46 246.26 0 0 81.27 38.08 64.24 74.49C2754.27 1826.25 2943.27 1582.46 2863.51 1469.08z"/><path fill="#775124" d="M3308.34,1773.98c0,0-38.82,15.52-90.33,32.86c-60.32,20.37-137.97,43.23-190.72,46.47
							c-69.66,4.24-291.39,14.22-312.92-70.5c0.41-0.05,0.64-0.25,0.96-0.37c13-5.4,158.53-64.59,147.62-338.75
							c0,0,31.68,0.38,70.14,1.02c55.64,1.04,125.52,2.68,134.85,5.15C3083.62,1453.82,3208.63,1583.19,3308.34,1773.98z"/><path fill="#0b1244" d="M3146.36,1629.45c-45.28-49.57-24.23-140.49-76.86-126.81c-52.63,13.68-192.77-26.67-192.77-26.67
							s22.91-13.89,56.36-31.27c55.64,1.04,125.52,2.68,134.85,5.15c15.67,3.97,140.68,133.33,240.39,324.12
							c0,0-38.82,15.52-90.33,32.86c4.47-11.6,14.66-25.35,29.72-38.61C3299.81,1722.14,3191.55,1678.94,3146.36,1629.45z" opacity=".25"/><path fill="#fba31c" d="M3052.36,1120.61c-40.84-32.31-133.5-11.5-154.45-3.08c-1.25,0.38-58.56,110.44-58.94,110.78
							c-35.07,30.87-12.73,83.67,11.87,88.79c8.26,70.65,13.53,124.57,10.64,150.2c-4.51,40.03,217.09,47.31,252.53-4.95
							C3163.51,1389.37,3120.44,1174.47,3052.36,1120.61z"/><path fill="#f18a66" d="M2936.8,1119.29c0,0,53.4-8.69,78.72-4.74c0,0-3.95,60.12-33.35,82.76
							C2952.77,1219.95,2924.99,1146.31,2936.8,1119.29z"/><polygon fill="#000107" points="2972.42 1166.38 2970.46 1201.52 2974.99 1200.98" opacity=".18"/><path fill="#000107" d="M2902.71,1291.29c0,0,27.72,21.31,61.57-11.53c0,0,44.13,22.85,75.08-1.57c0,0-36.01,47.27-75.61,12.81
							C2963.75,1290.99,2936.4,1328.61,2902.71,1291.29z" opacity=".1"/><path fill="#fff" d="M2715.37,1782.47c12.98-5.41,158.53-64.6,147.56-338.77C2862.93,1443.7,2932.4,1707.01,2715.37,1782.47z
							" opacity=".1"/><g><path fill="#1d1b2c" d="M2910.32,944.74c-20.91,16.49,3.19,60.33-19.65,64.61c-24.75,0.47-14.06,31.3,6.86,44.81
								c10.16,6.77,33.59,11.3,44.14,17.14c16.98,11.17,48.37,16.92,72,12.88c23.81-3.29,39.88-16.38,30.46-25.56
								c-19.39-22.65,36.99-39.69,17.6-63.8C3046.1,973.54,2996.01,877.18,2910.32,944.74z"/><path fill="#f18a66" d="M2988.61,1054.01l6.72,66.64c0,0-20.72,30.8-41.44,7.84l0.56-44.8L2988.61,1054.01z"/><path fill="#33133f" d="M2971.65,1129.34c-4.46-7.58-6.16-19.1,0.74-25.85c2.79-2.73,6.43-4.43,9.12-7.27
								c3.35-3.54,3.95-8.89,3.46-13.54c-0.8-7.58-4.02-14.96-3.49-22.48l-27.02,23.47l-0.56,44.8c8.09,8.97,16.18,9.72,23.03,7.32
								C2974.9,1133.96,2973.1,1131.82,2971.65,1129.34z" opacity=".15"/><path fill="#f18a66" d="M2900.32,985.51c0,0-3.73,107.14,38.82,110.5c42.56,3.36,61.22-41.44,61.22-41.44s7.84,4.85,9.71-2.99
								c1.87-7.84,11.2-21.65,1.87-26.88c-9.33-5.23-12.32,3.36-12.32,3.36l5.23-24.27
								C3004.85,1003.8,2901.44,950.42,2900.32,985.51z"/><path fill="#33133f" d="M3003.76 1029.54c0 0 5.6-3.02 7.84 1.35 2.24 4.37-2.69 21.07-9.3 19.05 0 0 8.52-3.7 7.51-13.89C3008.8 1025.84 3005.21 1032.79 3003.76 1029.54zM2977.95 1055.39c.5 2.97-2.74 6-7.24 6.76-4.5.76-8.55-1.04-9.05-4.01-.5-2.97 2.74-6 7.24-6.76C2973.39 1050.62 2977.45 1052.42 2977.95 1055.39zM2926.99 1055.67c.5 2.97-2.74 6-7.24 6.76-4.5.76-8.55-1.04-9.05-4.01-.5-2.97 2.74-6 7.24-6.76C2922.44 1050.9 2926.49 1052.7 2926.99 1055.67z" opacity=".05"/><path fill="#1d1b2c" d="M2929.15 1027.72c-.43 0-.86-.23-1.09-.63-.2-.35-5.07-8.39-17-3.1-.64.28-1.38-.01-1.66-.64-.28-.63 0-1.38.64-1.66 14.05-6.23 20.14 4.04 20.2 4.15.34.6.13 1.37-.47 1.72C2929.57 1027.66 2929.36 1027.72 2929.15 1027.72zM2953.54 1027.94c-.16 0-.31-.03-.47-.09-.64-.26-.95-.98-.7-1.63.04-.11 4.62-11.09 21.15-7.54.68.15 1.11.81.97 1.49-.15.68-.81 1.12-1.49.97-14.38-3.08-18.14 5.65-18.29 6.02C2954.51 1027.64 2954.04 1027.94 2953.54 1027.94zM2939.22 1059.7c-.44 0-.86-.06-1.28-.18-2.67-.78-3.79-3.78-3.84-3.91-.14-.37-.09-.79.13-1.12 4.5-6.9 3.31-16.28 3.3-16.37-.09-.69.39-1.32 1.08-1.41.68-.11 1.32.39 1.41 1.08.05.41 1.26 9.88-3.31 17.48.36.66 1.04 1.58 1.94 1.84.85.25 1.88-.09 3.07-1 .55-.42 1.34-.32 1.76.23.42.55.32 1.34-.23 1.76C2941.86 1059.17 2940.51 1059.7 2939.22 1059.7z"/><path fill="#fcfaf7" d="M2931.13,1072.35c0,0,14.34,6.5,30.41-0.98C2965.19,1078.05,2946.15,1095.43,2931.13,1072.35z"/><path fill="#1d1b2c" d="M2925.33 1038.15c0 3.92-2.17 7.09-4.85 7.09-2.68 0-4.85-3.18-4.85-7.09 0-3.92 2.17-7.09 4.85-7.09C2923.16 1031.05 2925.33 1034.23 2925.33 1038.15zM2969.01 1038.15c0 3.92-2.17 7.09-4.85 7.09-2.68 0-4.85-3.18-4.85-7.09 0-3.92 2.17-7.09 4.85-7.09C2966.84 1031.05 2969.01 1034.23 2969.01 1038.15z"/><path fill="#33133f" d="M2949.74,1090.16c-1.33,0-2.19-0.2-2.28-0.22c-0.34-0.08-0.55-0.42-0.47-0.76
									c0.08-0.34,0.42-0.54,0.76-0.47c0.05,0.01,5.57,1.24,10.58-3.1c0.27-0.22,0.66-0.19,0.89,0.06c0.23,0.26,0.2,0.66-0.06,0.89
									C2955.66,1089.58,2952.01,1090.16,2949.74,1090.16z" opacity=".05"/><path fill="#1d1b2c" d="M2919.7,967.92c0.26-4.5,0.03-7.43,0.03-7.43c-44.24,3.92-22.96,49.84-22.96,49.84
								c15.36-7.68,20.56-23.91,22.26-35.78c11.89,16.27,49.1,35.75,90.68,36.59l5.21-9.21L2919.7,967.92z"/></g><g><path fill="#1d1b2c" d="M3039.19,1254.43c-13.4-23.57-38.89-39.15-67.28-41.23c-12.41-0.91-32.61-1.04-37.54,13.96
									c-2.32,7.07-2.12,15.28-2.2,22.43c-0.08,7.52,0.73,14.84,3.24,21.75c3.26,8.97,8.75,17.13,8.49,27.25
									c-0.26,9.91-4.91,19.68-9.24,28.8c-1,2.11,2.52,5.88,3.61,3.59c3.88-8.17,7.81-16.48,9.28-25.26
									c1.43-8.55-0.28-16.21-3.46-23.77c-3.9-9.29-7.5-17.54-7.69-28.05c-0.16-8.58-1.47-23.63,5.98-30.41
									c7.3-6.65,20.95-6.1,29.66-5.55c8.52,0.54,16.79,2.35,24.56,5.29c16.88,6.38,30.79,17.98,39.51,33.32
									C3037.7,1259.35,3040.76,1257.18,3039.19,1254.43L3039.19,1254.43z"/><polygon fill="#1d1b2c" points="3232.21 1469.47 3029.53 1600.22 2866.95 1307.85 3042.07 1194.87"/><polygon fill="#1f4168" points="3042.07 1194.87 3054.03 1194.99 3055.85 1185.98 3242.88 1402.78 3231.65 1426.4 3232.21 1469.47"/><polygon points="3042.07 1194.87 3231.65 1426.4 3232.21 1469.47" opacity=".2"/><path d="M2933.9 1333.35c2.18 3.51.86 8.34-2.95 10.8-3.81 2.46-8.67 1.61-10.85-1.9-2.18-3.51-.86-8.34 2.95-10.8C2926.86 1329 2931.72 1329.85 2933.9 1333.35zM3036.67 1263.53c2.18 3.51.86 8.34-2.95 10.8-3.81 2.46-8.67 1.61-10.85-1.9-2.18-3.51-.86-8.34 2.95-10.8C3029.63 1259.18 3034.49 1260.03 3036.67 1263.53z"/><path fill="#1d1b2c" d="M3028.59,1262.52c-13.39-23.57-38.89-39.15-67.28-41.23c-12.41-0.91-32.61-1.04-37.54,13.96
									c-2.32,7.07-2.12,15.28-2.2,22.43c-0.08,7.52,0.73,14.84,3.24,21.75c3.26,8.97,8.75,17.13,8.49,27.25
									c-0.26,9.91-4.91,19.68-9.24,28.8c-1,2.11,2.52,5.88,3.61,3.6c3.88-8.17,7.8-16.48,9.27-25.26
									c1.43-8.55-0.28-16.21-3.46-23.77c-3.9-9.29-7.5-17.54-7.69-28.05c-0.16-8.58-1.47-23.63,5.98-30.41
									c7.3-6.65,20.95-6.1,29.66-5.55c8.52,0.54,16.79,2.35,24.56,5.29c16.88,6.38,30.79,17.98,39.51,33.32
									C3027.09,1267.44,3030.15,1265.27,3028.59,1262.52L3028.59,1262.52z"/><path fill="#fff" d="M2887.4,1308.21c0,0,137.33-109.24,155.1-87.29c17.78,21.96,187.6,228.71,150.4,247.22
								c-37.21,18.5-91.22-1.23-112.23-79.21C3059.66,1310.96,2901.06,1420.79,2887.4,1308.21z" opacity=".1"/><g><path fill="#1d1b2c" d="M3012.52,1266.53c-6.8-22.24-25.22-40.06-48.6-47.12c-10.22-3.08-27.11-6.98-34.04,4.65
									c-3.27,5.49-4.64,12.4-6.04,18.36c-1.48,6.28-2.17,12.56-1.36,18.81c1.04,8.12,4.12,15.98,2,24.41
									c-2.07,8.25-7.79,15.56-13.13,22.38c-1.24,1.58,1.01,5.4,2.35,3.69c4.78-6.11,9.62-12.34,12.49-19.41
									c2.8-6.89,2.8-13.62,1.55-20.55c-1.53-8.51-2.99-16.08-1.18-24.92c1.48-7.21,3.2-20.06,10.7-24.34
									c7.36-4.2,18.68-1.19,25.87,0.91c7.03,2.05,13.62,5.11,19.57,9.03c12.93,8.5,22.41,20.82,26.83,35.3
									C3010.35,1270.36,3013.31,1269.12,3012.52,1266.53L3012.52,1266.53z"/><polygon fill="#1f4168" points="3133.82 1482.7 2939.65 1554.19 2858.32 1278.98 3026.09 1217.21"/><polygon fill="#1d1b2c" points="3026.09 1217.21 3036.08 1219.55 3039.29 1212.35 3155.24 1428.87 3141.41 1446.54 3133.82 1482.7"/><polygon points="3026.09 1217.21 3141.41 1446.54 3133.82 1482.7" opacity=".2"/><path d="M2909.59 1312.87c1.17 3.34-.84 7.15-4.49 8.49-3.65 1.34-7.56-.28-8.73-3.62-1.17-3.34.84-7.15 4.49-8.49C2904.52 1307.91 2908.43 1309.53 2909.59 1312.87zM3008.71 1273.68c1.17 3.34-.84 7.15-4.49 8.49-3.65 1.34-7.56-.28-8.73-3.62-1.17-3.34.84-7.15 4.49-8.49C3003.63 1268.71 3007.54 1270.33 3008.71 1273.68z"/><path fill="#1d1b2c" d="M3002.12,1271.32c-6.8-22.24-25.22-40.06-48.6-47.12c-10.22-3.08-27.11-6.98-34.04,4.65
									c-3.27,5.49-4.64,12.4-6.04,18.36c-1.48,6.28-2.17,12.56-1.36,18.81c1.04,8.12,4.12,15.98,2,24.41
									c-2.07,8.25-7.79,15.56-13.13,22.38c-1.23,1.58,1.01,5.39,2.35,3.69c4.78-6.11,9.62-12.34,12.49-19.41
									c2.8-6.89,2.8-13.62,1.55-20.55c-1.53-8.51-2.99-16.08-1.18-24.92c1.48-7.21,3.2-20.06,10.7-24.34
									c7.36-4.2,18.68-1.19,25.87,0.91c7.03,2.05,13.62,5.11,19.57,9.03c12.93,8.51,22.41,20.82,26.83,35.3
									C2999.95,1275.15,3002.92,1273.91,3002.12,1271.32L3002.12,1271.32z"/><path fill="#fff" d="M2875.37,1283.12c0,0,135.42-65.73,146.19-44.02c10.77,21.71,114.2,226.6,79.59,235.12
								c-34.61,8.52-76.14-18.12-79.11-87.33C3019.06,1317.68,2865.73,1379.92,2875.37,1283.12z" opacity=".1"/></g><g><path fill="#f18a66" d="M2968.38,1429.04L2968.38,1429.04c2.2-1.26,5.13-3.37,9.13-6.91c0,0-0.04,0.01-0.1,0.04
										c2.06-1.69,4.09-3.6,6.01-5.6c3.33-3.46,5.57-6.18,7.05-8.18c0-0.01,0.01-0.02,0.02-0.02c2.18-2.96,2.71-4.36,2.71-4.36
										s41.2-22.5,45.39-26.98c2.51-6.12-13.58-22.35-13.58-22.35c-5.62-1.25-39.15,23.82-48.43,23.75
										c-10.83-0.09-32.64-12.74-32.78-4.5c-0.15,8.26,16.86,11.66,16.86,11.66s-0.21,0.07-0.58,0.21
										c-2.28,0.85-10.83,4.29-17.23,9.9l-0.01,0.01c-1.77,1.57-3.38,3.3-4.65,5.2c-0.22,0.34-0.44,0.67-0.64,1.01
										c-0.36,0.61-0.68,1.25-0.95,1.9c-0.05,0.1-0.09,0.22-0.14,0.32c-0.14,0.33-0.26,0.66-0.37,0.99l-0.01,0.04
										c0,0.01,0,0.01,0.01,0.02c-0.03,0.96,0.22,2.1,1.05,3.42c2.67,4.27,6.36,2.72,6.36,2.72s-2.17,3.28,0.51,6.39
										c2.85,3.32,5.23,1.08,5.23,1.08s-1.13,4.09,1.21,6.62c2.47,2.67,5.18,0.02,5.18,0.02s-1.22,2.78,1.64,5.94
										C2959.85,1434.2,2968.38,1429.04,2968.38,1429.04z"/><path fill="#fff" d="M2954.11 1416.53c-.04.14-.02.29.12.41 1.65 1.43 3.15 2.86 3.68 5.05.18.73.39 1.55 1.07 1.97.31.19.67.26 1.02.36.46.14.8.4 1.15.73 1.15 1.07 2.09 2.4 2.84 3.77.34.63.66 1.3.94 1.98-2.67 1.16-6.15 2.2-7.64.56-2.86-3.15-1.64-5.94-1.64-5.94s-2.72 2.65-5.19-.02c-2.34-2.53-1.21-6.62-1.21-6.62s-2.38 2.24-5.23-1.08c-2.69-3.12-.51-6.39-.51-6.39s-3.69 1.55-6.36-2.72c-.83-1.33-1.08-2.47-1.05-3.42 0-.01 0-.01-.01-.02l.01-.04c.11-.33.23-.66.37-.99.04-.11.09-.22.14-.33.27-.65.6-1.28.95-1.9.21-.34.42-.68.64-1.01.31 1.17.94 2.32 1.58 3.3.73 1.11 1.66 2.22 2.95 2.68 1.35.49 2.81.15 4.19.49 1.44.38 2.43 1.75 2.79 3.14.31 1.2.11 2.41.9 3.46.88 1.17 2.23 1.8 3.45 2.53C2954.08 1416.52 2954.1 1416.52 2954.11 1416.53zM2945.61 1372.63c0 0 5.93 2.62 6.95 2.05 1.01-.58.56-1.92.56-1.92S2947.09 1371.16 2945.61 1372.63z" opacity=".2"/><path fill="#f18a66" d="M3221.53,1250.51c-21.92-41.98-242.77,131.62-242.77,131.62l14.44,21.87
								C2993.2,1404,3276.34,1355.45,3221.53,1250.51z"/><path fill="#fba31c" d="M3052.36,1120.61c0,0,213.63,50.22,191.6,146.51c-22.03,96.28-227.94,136.89-227.94,136.89l-20.69-39.72
							l118.17-104.11L3052.36,1120.61z"/></g></g></g></g></svg>