<svg xmlns="http://www.w3.org/2000/svg" enable-background="new 0 0 3000 3000" viewBox="0 0 3000 3000"><path fill="#f7f0f1" d="M2410.76 1466.04c103.16-73.42 201.89-151.88 213.31-261.93 37.77-277.17-399.98 2.64-350.96-528.31 76.03-526.69-192.7-281.62-597.43-84.59-96.72 47.59-179.09 78.29-246.74 93.56-55.39-79.33-112.47-157.61-172.9-231.05 2.98-5.11 6.05-10.26 9.32-15.5 51.34-81.77 6.83-96.81-84.27-70.76a1633.295 1633.295 0 0 0-41.78-43.69c-151-155.17-190.24-70.81-194.49 149.77-169.36 94.92-354.64 235.7-439.02 358.86-24.73 35.95-8.17 76.65 20.28 126.13-90.56 14.17-173.36 44.72-218.84 127.71-117.82 221.23 177.87 230.81 185.69 513.09-24.71 32.57-53.15 66.72-85.82 102.65-333.55 371.93-189.24 503.1 10.04 447.48 54.93 167.54 301.99 87.89 609.67 81.03 422.73-8.59 574.23 166.93 415.33 342.8-159.01 179.55 590.95 126.82 801.5-38.66 53.47-41.63-60.02-169.52-87.71-315.06 46.19 6.37 92.55 10.92 138.92 13.17 263.29 11.7 181.22-95.76.66-307.73 46.01-28.77 104.92-55.07 179.55-77.83 534.12-161.05 242.45-382.75-64.31-381.14z"/><path fill="#f7f0f1" d="M2378.96 897.8c102.11 32.78 270.35-47.38 233.17-95.23-36.98-48.93-307.78 70.26-233.17 95.23zM2689.27 1499.54c-77.67 23.26-160.75-137.96-26.62-212.66 133.43-73.96 19.44-23.03 14.46 63.42-4.7 86.56 78.34 129.86 12.16 149.24zM198.18 1731.08c235.36-81 273.55-295.13 128.1-281.31-148.39 13.59-227.57 314.74-128.1 281.31z"/><path fill="#fff" d="M2294.54 1251.35c-.1 4.82-3.41 8.68-7.41 8.62-4-.06-7.17-4.01-7.07-8.83.1-4.82 3.43-8.68 7.43-8.62 4 .06 7.15 4.01 7.05 8.83zM2293.46 1334.23c-.03 4.82-3.29 8.7-7.3 8.66-4.01-.03-7.24-3.97-7.21-8.8.03-4.82 3.31-8.7 7.32-8.66 4 .04 7.22 3.98 7.19 8.8zM2293.6 1417.12c.04 4.82-3.17 8.72-7.19 8.7-4.02-.01-7.32-3.93-7.36-8.76-.04-4.82 3.19-8.72 7.2-8.7 4.02.02 7.31 3.94 7.35 8.76zM2294.96 1500.01c.12 4.82-3.05 8.73-7.08 8.74-4.03.01-7.39-3.9-7.5-8.72-.11-4.82 3.07-8.74 7.09-8.74 4.03 0 7.38 3.9 7.49 8.72zM2356.36 1206.26c-.13 4.8-3.47 8.63-7.46 8.57-4-.07-7.14-4.01-7-8.82.13-4.8 3.48-8.64 7.47-8.57 4 .07 7.12 4.02 6.99 8.82zM2354.75 1288.8c-.06 4.8-3.34 8.65-7.35 8.61-4-.04-7.21-3.98-7.15-8.78.06-4.8 3.36-8.66 7.36-8.61 4.01.05 7.2 3.98 7.14 8.78zM2354.35 1371.37c.01 4.8-3.23 8.67-7.24 8.65-4.01-.03-7.28-3.94-7.29-8.74-.01-4.8 3.24-8.68 7.25-8.65 4.02.02 7.27 3.94 7.28 8.74zM2355.17 1453.94c.08 4.8-3.1 8.69-7.13 8.69-4.02 0-7.36-3.9-7.44-8.71-.08-4.81 3.12-8.69 7.14-8.69 4.03.01 7.35 3.91 7.43 8.71zM533.36 1850.32c.17 4.7-2.58 8.59-6.15 8.66-3.57.08-6.6-3.68-6.77-8.39-.17-4.71 2.59-8.59 6.16-8.66 3.56-.07 6.59 3.68 6.76 8.39zM536.79 1931.27c.23 4.7-2.48 8.6-6.05 8.69-3.57.1-6.66-3.65-6.89-8.36-.23-4.71 2.49-8.6 6.06-8.69 3.57-.08 6.65 3.66 6.88 8.36zM541.26 2012.18c.29 4.7-2.37 8.6-5.95 8.71-3.58.11-6.72-3.62-7.01-8.32-.29-4.71 2.38-8.61 5.96-8.71 3.58-.11 6.71 3.62 7 8.32zM546.79 2093.04c.35 4.7-2.26 8.61-5.85 8.74-3.58.12-6.78-3.58-7.13-8.28-.35-4.7 2.28-8.62 5.86-8.74 3.58-.13 6.77 3.58 7.12 8.28zM586.07 1804.22c.14 4.69-2.63 8.55-6.2 8.62-3.57.07-6.57-3.68-6.71-8.38-.14-4.7 2.64-8.56 6.21-8.62 3.56-.07 6.56 3.68 6.7 8.38zM589 1884.94c.2 4.69-2.52 8.56-6.1 8.65s-6.63-3.65-6.83-8.35c-.2-4.7 2.54-8.57 6.11-8.65 3.57-.08 6.62 3.66 6.82 8.35zM592.98 1965.63c.26 4.69-2.42 8.57-6 8.67-3.58.1-6.69-3.62-6.95-8.31-.26-4.69 2.43-8.58 6.01-8.68 3.57-.1 6.68 3.63 6.94 8.32zM598.01 2046.26c.32 4.69-2.31 8.58-5.9 8.7-3.58.12-6.75-3.59-7.07-8.28-.32-4.69 2.33-8.59 5.91-8.7 3.58-.11 6.73 3.6 7.06 8.28z"/><path fill="#385877" d="m2617.4 2450.56-.46 166.92c0 1.14-210.42 33.91-469.47 40.3-97.67 2.46-205.73 3.77-319.33 3.77-72.04 0-141.86-.51-208.19-1.54-40.02-.63-78.78-1.37-115.94-2.28-42.13-1.03-83.52-2.8-123.36-5.02-17.35-.97-34.37-2.05-51.03-3.14-7.36-.51-14.61-.97-21.81-1.54-.86-.06-1.77-.11-2.63-.17-16.38-1.14-32.31-2.4-47.72-3.65-8.28-.68-16.38-1.37-24.32-2.05-48.52-4.22-96.24-10.22-132.27-15.18-37.33-5.25-62.05-9.36-62.05-9.48v-166.92H2617.4z"/><defs><filter id="a" width="998.36" height="210.99" x="1619.04" y="2450.56" filterUnits="userSpaceOnUse"><feFlood flood-color="#fff" flood-opacity="1" result="back"/><feBlend in="SourceGraphic" in2="back"/></filter></defs><mask id="b" width="998.36" height="210.99" x="1619.04" y="2450.56" maskUnits="userSpaceOnUse"><g filter="url(#a)"><linearGradient id="c" x1="1590.54" x2="2819.516" y1="2556.053" y2="2556.053" gradientUnits="userSpaceOnUse"><stop offset="0" stop-color="#fff"/><stop offset=".441" stop-color="#fdfdfd"/><stop offset=".6" stop-color="#f6f6f6"/><stop offset=".713" stop-color="#ebebeb"/><stop offset=".804" stop-color="#dadada"/><stop offset=".883" stop-color="#c4c4c4"/><stop offset=".951" stop-color="#a9a9a9"/><stop offset="1" stop-color="#919191"/></linearGradient><path fill="url(#c)" d="m2617.4 2450.56-.46 166.92c0 1.14-210.42 33.91-469.47 40.3-97.67 2.46-205.73 3.77-319.33 3.77-72.04 0-141.86-.51-208.19-1.54-10.67-66.68 76.72-154.07 76.72-154.07s365.69-32.2 644.43-55.37h276.3z" mask="url(#b)"/></g></mask><linearGradient id="d" x1="1590.54" x2="2819.516" y1="2556.053" y2="2556.053" gradientUnits="userSpaceOnUse"><stop offset="0" stop-color="#d5b496"/><stop offset=".523" stop-color="#d4b498"/><stop offset=".712" stop-color="#cfb69f"/><stop offset=".846" stop-color="#c6b8aa"/><stop offset=".954" stop-color="#babbbb"/><stop offset="1" stop-color="#b3bdc5"/></linearGradient><path fill="url(#d)" d="m2617.4 2450.56-.46 166.92c0 1.14-210.42 33.91-469.47 40.3-97.67 2.46-205.73 3.77-319.33 3.77-72.04 0-141.86-.51-208.19-1.54-10.67-66.68 76.72-154.07 76.72-154.07s365.69-32.2 644.43-55.37h276.3z" opacity=".25"/><path fill="#e2f4fb" d="m1449.09 2460.49-.12.16-37.96 49.44-50.23 65.34-55.6 72.41c-16.38-1.13-32.31-2.38-47.72-3.63-8.28-.69-16.38-1.37-24.32-2.06-48.52-4.24-96.24-10.21-132.27-15.22l54-61.79 48.12-55.05 43.21-49.44 7.42-8.47c61.21 3.06 126.51 5.85 195.47 8.31zM1526.27 2463.23l-35.96 46.86-52.57 68.37-57.09 74.23c-17.35-.97-34.37-2.02-51.03-3.11l53.6-73.21 48.64-66.27 35.85-48.84c19.23.68 38.81 1.33 58.56 1.97z" opacity=".25"/><path fill="#1d1b2c" d="M2617.41 2452.68c0 29.37-256.77 54-602.58 60.65-.06-.03-.09 0-.12 0l-9.36.18c-56.97 1.04-116.28 1.57-177.26 1.57-143.34 0-277.77-3.03-393.63-8.29-9.62-.44-19.16-.89-28.51-1.36-3.03-.15-6.06-.33-9.06-.48-33.56-1.72-65.34-3.65-95.1-5.76-34.36-2.43-66-5.11-94.54-7.99-105.53-10.6-168.47-23.97-168.47-38.52 0-29.55 259.98-54.29 609-60.74 57.92-1.07 118.27-1.63 180.32-1.63 164.96 0 318.1 4.01 444.72 10.84h.03c201.14 10.84 335.45 28.87 344.12 49.42.29.69.44 1.4.44 2.11z"/><path fill="#385877" d="M2557.71 2453.97c0 26.77-326.66 48.48-729.61 48.48-189.74 0-362.6-4.81-492.37-12.71-6.79-.41-13.47-.83-20-1.25-2.96-.19-5.86-.39-8.75-.58-28.26-1.93-54.15-4-77.35-6.21-82.67-7.85-131.15-17.42-131.15-27.73l2-18.97.35-3.13c11.38-19.41 194.81-35.88 451.81-42.87h550.92c256.9 6.99 440.34 23.45 451.8 42.84l.35 3.18v.02l2 18.93z"/><path fill="#1d1b2c" d="M2555.94 2433.78c0 .41-.09.83-.23 1.24v.02c-9.96 26.13-331.92 47.11-727.61 47.11-182.35 0-349.01-4.45-476.72-11.82-7.02-.41-13.93-.81-20.73-1.24-2.72-.17-5.42-.34-8.1-.52-27.4-1.76-52.69-3.65-75.67-5.67-88.63-7.79-142.52-17.43-146.41-27.89-.16-.41-.23-.81-.23-1.22 0-.64.19-1.29.58-1.91 11.38-19.41 194.81-35.88 451.81-42.87 84.97-2.3 177.97-3.57 275.46-3.57 97.49 0 190.49 1.27 275.46 3.57 256.9 6.99 440.34 23.45 451.8 42.84.4.63.59 1.27.59 1.93zM1923.22 2580.53c-63.38 3.15-126.88 3.15-190.26 0 .93-18.65 1.85-37.3 2.78-55.96 61.53 3.06 123.18 3.06 184.71 0 .92 18.66 1.85 37.31 2.77 55.96z"/><path fill="#1d1b2c" d="M1948.32 2631c-80.08 4.9-160.38 4.9-240.45 0l3.42-55.92c77.8 4.76 155.82 4.76 233.61 0l3.42 55.92zM1979.29 2679.95a2020.034 2020.034 0 0 1-302.39 0c.91-12.18 1.83-24.35 2.74-36.53 98.83 7.42 198.08 7.42 296.91 0 .91 12.17 1.82 24.35 2.74 36.53z"/><path fill="#1f4168" d="M1920.22 2522.68a1854.452 1854.452 0 0 1-184.26 0c-3.23 5.36-6.48 10.72-9.76 16.07 12.6.69 25.22 1.24 37.83 1.67 42.7 1.46 85.44 1.46 128.13 0 12.61-.43 25.22-.99 37.83-1.67-3.28-5.35-6.54-10.71-9.77-16.07z"/><path fill="#385877" d="M1930.53 2546.37c-68.24 3.72-136.63 3.72-204.88 0 .14-2.54.28-5.08.41-7.63 67.97 3.7 136.08 3.7 204.05 0l.42 7.63z"/><path fill="#1f4168" d="M1944.87 2573.68c-12.09.74-24.18 1.36-36.28 1.87-53.64 2.26-107.35 2.26-160.99 0-12.1-.51-24.19-1.13-36.28-1.87-4.08 5.28-8.2 10.54-12.34 15.8 15.97 1.07 31.94 1.94 47.93 2.62a1928.524 1928.524 0 0 0 210.32-2.62c-4.16-5.25-8.27-10.52-12.36-15.8z"/><path fill="#385877" d="M1957.89 2597.09c-86.43 5.81-173.16 5.81-259.59 0l.51-7.62c86.09 5.78 172.48 5.78 258.57 0l.51 7.62z"/><path fill="#1f4168" d="M1968.57 2625.19c-14.54 1.04-29.09 1.92-43.64 2.64a1967.43 1967.43 0 0 1-193.69 0c-14.55-.72-29.1-1.6-43.64-2.64-4.9 5.18-9.83 10.34-14.8 15.49 19.2 1.51 38.41 2.74 57.63 3.69 65.07 3.21 130.25 3.21 195.32 0 19.22-.95 38.43-2.18 57.63-3.69-4.97-5.14-9.91-10.31-14.81-15.49z"/><path fill="#385877" d="M1984.17 2648.28a1988.476 1988.476 0 0 1-312.16 0l.6-7.62c103.49 8.15 207.47 8.15 310.96 0l.6 7.62z"/><defs><filter id="e" width="85.12" height="11.35" x="1839.8" y="2524.56" filterUnits="userSpaceOnUse"><feFlood flood-color="#fff" flood-opacity="1" result="back"/><feBlend in="SourceGraphic" in2="back"/></filter></defs><mask id="f" width="85.12" height="11.35" x="1839.8" y="2524.56" maskUnits="userSpaceOnUse"><g filter="url(#e)"><linearGradient id="g" x1="1837.372" x2="1942.154" y1="2530.234" y2="2530.234" gradientUnits="userSpaceOnUse"><stop offset="0" stop-color="#fff"/><stop offset=".441" stop-color="#fdfdfd"/><stop offset=".6" stop-color="#f6f6f6"/><stop offset=".713" stop-color="#ebebeb"/><stop offset=".804" stop-color="#dadada"/><stop offset=".883" stop-color="#c4c4c4"/><stop offset=".951" stop-color="#a9a9a9"/><stop offset="1" stop-color="#919191"/></linearGradient><path fill="url(#g)" d="m1839.8 2526.26 78.68-1.7 6.44 10.17s-25.1 3.39-36.29-1.36c-11.18-4.74-48.83-7.11-48.83-7.11z" mask="url(#f)"/></g></mask><linearGradient id="h" x1="1837.372" x2="1942.154" y1="2530.234" y2="2530.234" gradientUnits="userSpaceOnUse"><stop offset="0" stop-color="#d5b496"/><stop offset=".523" stop-color="#d4b498"/><stop offset=".712" stop-color="#cfb69f"/><stop offset=".846" stop-color="#c6b8aa"/><stop offset=".954" stop-color="#babbbb"/><stop offset="1" stop-color="#b3bdc5"/></linearGradient><path fill="url(#h)" d="m1839.8 2526.26 78.68-1.7 6.44 10.17s-25.1 3.39-36.29-1.36c-11.18-4.74-48.83-7.11-48.83-7.11z" opacity=".25"/><defs><filter id="i" width="87.49" height="11.35" x="1863.88" y="2576.11" filterUnits="userSpaceOnUse"><feFlood flood-color="#fff" flood-opacity="1" result="back"/><feBlend in="SourceGraphic" in2="back"/></filter></defs><mask id="j" width="87.49" height="11.35" x="1863.88" y="2576.11" maskUnits="userSpaceOnUse"><g filter="url(#i)"><linearGradient id="k" x1="1861.382" x2="1969.086" y1="2581.78" y2="2581.78" gradientUnits="userSpaceOnUse"><stop offset="0" stop-color="#fff"/><stop offset=".441" stop-color="#fdfdfd"/><stop offset=".6" stop-color="#f6f6f6"/><stop offset=".713" stop-color="#ebebeb"/><stop offset=".804" stop-color="#dadada"/><stop offset=".883" stop-color="#c4c4c4"/><stop offset=".951" stop-color="#a9a9a9"/><stop offset="1" stop-color="#919191"/></linearGradient><path fill="url(#k)" d="m1863.88 2579.16 81.05-3.05 6.44 10.17s-25.09 3.39-36.29-1.35c-11.18-4.75-51.2-5.77-51.2-5.77z" mask="url(#j)"/></g></mask><linearGradient id="l" x1="1861.382" x2="1969.086" y1="2581.78" y2="2581.78" gradientUnits="userSpaceOnUse"><stop offset="0" stop-color="#d5b496"/><stop offset=".523" stop-color="#d4b498"/><stop offset=".712" stop-color="#cfb69f"/><stop offset=".846" stop-color="#c6b8aa"/><stop offset=".954" stop-color="#babbbb"/><stop offset="1" stop-color="#b3bdc5"/></linearGradient><path fill="url(#l)" d="m1863.88 2579.16 81.05-3.05 6.44 10.17s-25.09 3.39-36.29-1.35c-11.18-4.75-51.2-5.77-51.2-5.77z" opacity=".25"/><defs><filter id="m" width="87.75" height="12.08" x="1887.2" y="2627.76" filterUnits="userSpaceOnUse"><feFlood flood-color="#fff" flood-opacity="1" result="back"/><feBlend in="SourceGraphic" in2="back"/></filter></defs><mask id="n" width="87.75" height="12.08" x="1887.2" y="2627.76" maskUnits="userSpaceOnUse"><g filter="url(#m)"><linearGradient id="o" x1="1878.386" x2="1986.086" y1="2677.565" y2="2677.565" gradientTransform="rotate(-2.975 1112.665 2534.98)" gradientUnits="userSpaceOnUse"><stop offset="0" stop-color="#fff"/><stop offset=".441" stop-color="#fdfdfd"/><stop offset=".6" stop-color="#f6f6f6"/><stop offset=".713" stop-color="#ebebeb"/><stop offset=".804" stop-color="#dadada"/><stop offset=".883" stop-color="#c4c4c4"/><stop offset=".951" stop-color="#a9a9a9"/><stop offset="1" stop-color="#919191"/></linearGradient><path fill="url(#o)" d="m1887.2 2635.02 80.78-7.26 6.96 9.83s-24.88 4.69-36.31.53c-11.41-4.17-51.43-3.1-51.43-3.1z" mask="url(#n)"/></g></mask><linearGradient id="p" x1="1878.386" x2="1986.086" y1="2677.565" y2="2677.565" gradientTransform="rotate(-2.975 1112.665 2534.98)" gradientUnits="userSpaceOnUse"><stop offset="0" stop-color="#d5b496"/><stop offset=".523" stop-color="#d4b498"/><stop offset=".712" stop-color="#cfb69f"/><stop offset=".846" stop-color="#c6b8aa"/><stop offset=".954" stop-color="#babbbb"/><stop offset="1" stop-color="#b3bdc5"/></linearGradient><path fill="url(#p)" d="m1887.2 2635.02 80.78-7.26 6.96 9.83s-24.88 4.69-36.31.53c-11.41-4.17-51.43-3.1-51.43-3.1z" opacity=".25"/><defs><filter id="q" width="368.85" height="68.16" x="2123.99" y="2400.1" filterUnits="userSpaceOnUse"><feFlood flood-color="#fff" flood-opacity="1" result="back"/><feBlend in="SourceGraphic" in2="back"/></filter></defs><mask id="r" width="368.85" height="68.16" x="2123.99" y="2400.1" maskUnits="userSpaceOnUse"><g filter="url(#q)"><linearGradient id="s" x1="2111.75" x2="2566.72" y1="2436.423" y2="2412.765" gradientUnits="userSpaceOnUse"><stop offset="0" stop-color="#fff"/><stop offset=".441" stop-color="#fdfdfd"/><stop offset=".6" stop-color="#f6f6f6"/><stop offset=".713" stop-color="#ebebeb"/><stop offset=".804" stop-color="#dadada"/><stop offset=".883" stop-color="#c4c4c4"/><stop offset=".951" stop-color="#a9a9a9"/><stop offset="1" stop-color="#919191"/></linearGradient><path fill="url(#s)" d="M2161.63 2400.1s273.67 6.1 326.57 30.52c52.9 24.42-364.22 37.64-364.22 37.64s271.64-12.21 214.66-33.57c-56.96-21.36-177.01-34.59-177.01-34.59z" mask="url(#r)"/></g></mask><path fill="#fff" d="M2161.63 2400.1s273.67 6.1 326.57 30.52c52.9 24.42-364.22 37.64-364.22 37.64s271.64-12.21 214.66-33.57c-56.96-21.36-177.01-34.59-177.01-34.59z" opacity=".25"/><path fill="#fcbf44" d="M2298.43 609.83v1635.12c0 14.09-4.92 26.99-13.16 37.18-10.87 13.25-27.33 21.73-45.75 21.73h-822.87c-32.59 0-58.91-26.4-58.91-58.91V609.83c23.43-18.68 53.05-29.8 85.31-29.8h770.07c32.18.01 61.89 11.13 85.31 29.8z"/><path fill="#1f4168" d="M2350.47 717.39v1569.58c0 75.81-61.53 137.4-137.34 137.4h-770.07c-75.87 0-137.34-61.59-137.34-137.4V717.39c0-30.36 9.85-58.53 26.56-81.23 7.32-9.91 15.9-18.84 25.46-26.33v1635.14c0 32.49 26.33 58.94 58.94 58.94h822.84c32.55 0 58.94-26.44 58.94-58.94V609.83c9.62 7.6 18.14 16.42 25.46 26.33 16.7 22.7 26.55 50.87 26.55 81.23z"/><path fill="#385877" d="M2222.15 351.1c44.16 0 79.96 35.8 79.96 79.97v20.8c0 36.1-30.19 65.44-67.66 65.44-37.38 0-67.74-29.34-67.74-65.44V351.1h55.44z"/><path fill="#efe6dc" d="M2099 517.23c37.4 0 67.72-30.32 67.72-67.72v-98.44h-135.44v98.44c0 37.4 30.32 67.72 67.72 67.72z"/><path fill="#385877" d="M1895.83 351.11v100.83c0 36.03 30.37 65.33 67.72 65.33 37.44 0 67.72-29.3 67.72-65.33V351.11h-135.44z"/><path fill="#efe6dc" d="M1828.11 517.23c37.4 0 67.72-30.32 67.72-67.72v-98.44h-135.44v98.44c0 37.4 30.32 67.72 67.72 67.72z"/><path fill="#385877" d="M1624.95 351.11v100.83c0 36.03 30.37 65.33 67.72 65.33 37.44 0 67.72-29.3 67.72-65.33V351.11h-135.44z"/><path fill="#efe6dc" d="M1557.22 517.23c37.4 0 67.72-30.32 67.72-67.72v-98.44H1489.5v98.44c.01 37.4 30.33 67.72 67.72 67.72z"/><path fill="#385877" d="M1489.51 351.1v100.77c0 36.1-30.28 65.44-67.75 65.44-37.38 0-67.75-29.34-67.75-65.44v-20.8c0-44.17 35.8-79.97 79.97-79.97h55.53z"/><path fill="#3b3a51" d="m2166.7 444.32 113.2 71.15 1.18 2.74v.08l1.77 4.03c13.78 30.3 67.61 56.08 119.88 56.08 28.25 0 49.01-7.42 59.54-19.02v-41.17l-1.67-2.66-157.16-71.23H2166.7z"/><path fill="#fff" d="M2186.17 578.39h50.07c39.07 0 62.34-35.16 52.39-58.26l-121.92-75.81h-135.43l73.15 75.36c5.97 23.09 42.67 58.71 81.74 58.71z"/><path fill="#3b3a51" d="m1895.83 444.34 23.15 77.2c2.64 30.63 47.85 56.88 100.68 56.88 52.95 0 91.27-29.5 83.35-60.13l-71.73-73.95h-135.45z"/><path fill="#fff" d="M1803.08 578.39h50.06c39.07 0 72.24-24.62 70.24-47.72l-27.56-86.35h-135.44l-26.41 81.54c-1.98 23.1 30.04 52.53 69.11 52.53z"/><path fill="#3b3a51" d="m1624.94 444.34-79.29 81.98c-7.92 30.63 38.09 52.11 90.91 52.11 52.95 0 95.47-24 98.11-54.63l25.72-79.45h-135.45z"/><path fill="#fff" d="M1419.99 578.39h50.07c39.07 0 69.62-27.83 75.6-50.93l79.3-83.15h-135.42l-132.26 83.1c-9.97 23.1 23.64 50.98 62.71 50.98z"/><path fill="#3b3a51" d="M1193.91 518.45v40.85c10.43 11.6 31.3 19.1 59.55 19.1 52.95 0 107.08-26.27 120.27-56.89l1.38-3.14v-.08l1.18-2.82h.1l113.1-71.15h-141.97l-151.84 71.23-1.77 2.9z"/><path fill="#1f4168" d="M2281.08 515.55v114.41c0 40.93 40.65 74.21 90.65 74.21 50.09 0 90.55-33.28 90.55-74.21V518.21l-1.67-2.66h-179.53zM1918.71 515.51v114.48c0 40.91 40.63 74.17 90.6 74.17 50.09 0 90.6-33.26 90.6-74.17V515.51h-181.2zM1556.33 515.51v114.48c0 40.91 40.63 74.17 90.6 74.17 50.09 0 90.6-33.26 90.6-74.17V515.51h-181.2z"/><path fill="#efe6dc" d="M2099.91 515.46v98.85c0 49.59 40.56 89.79 90.59 89.79s90.6-40.2 90.6-89.79v-98.85h-181.19zM1737.52 614.32c0 49.59 40.56 89.79 90.6 89.79 50.03 0 90.59-40.2 90.59-89.79v-98.85h-181.19v98.85zM1375.14 614.32c0 49.59 40.56 89.79 90.6 89.79 50.03 0 90.59-40.2 90.59-89.79v-98.85h-181.19v98.85z"/><path fill="#1f4168" d="M1193.91 518.45v111.51c0 40.93 40.65 74.21 90.65 74.21 50.1 0 90.55-33.28 90.55-74.21V515.55h-179.42l-1.78 2.9z"/><path fill="#fff" d="M1466.88 884.86h722.42v1032.97h-722.42z"/><path fill="#f18a66" d="M635.3 1011.33s-134.87 148.65-181.36 93.88c-39.36-46.38 109.52-164.55 109.52-164.55l71.84 70.67zM933.97 929.66s141.43 188.57 76.07 217.33c-63.22 27.82-119.86-137.89-119.86-137.89l43.79-79.44zM1299.37 1077.62c-1.88.28-3.6.37-4.95.31-.28-.02-.52-.02-.75-.05-5.81-.56-11.56-1.42-16.86-2.39-14.26-2.57-25.33-5.88-25.33-5.88s-23.61 15.58-34.56 14.39c-10.57-5.4-11.21-49.55-11.21-49.55 20.3-2.55 30.94-16.41 46.59-22.13 15.67-5.7 35.42-5.46 35.42-5.46s82.74-23.4 87.98-4.68c2.34 8.32-40.31 17.14-56.16 22.34-.13.05-.26.08-.39.13.04.01 6.31 4.33 4.64 11.09-.8 3.3-2.62 4.73-2.62 4.73s2.71 3.64 2.7 6.88c-.01 3.26-1.81 8.19-3.33 8.57.01.06 2.58 3.14 1.23 7.01-1.34 3.86-6.86 6.56-6.86 6.56l-.01-.04c-.47.59-.94 1.15-1.45 1.66-3.91 3.92-9.51 5.81-14.08 6.51z"/><path fill="#f18a66" d="M1299.37 1077.62c.44-.72.74-1.51.81-2.38.29-3.89-3.39-5.24-6.35-5.74-1.73-.29-3.57-.28-5.26-.79-1.47-.41-2.9-1.49-4.03-2.54-9.81-8.87-10.57-31.9 3.4-36.24 5.73-1.78 11.83-3.11 17.71-4.04 4.91-.78 8.57-1.5 13.49-1.26.04.01 6.31 4.33 4.64 11.09-.8 3.3-2.62 4.73-2.62 4.73s2.71 3.64 2.7 6.88c-.01 3.26-1.81 8.19-3.33 8.57.01.06 2.58 3.14 1.23 7.01-1.34 3.86-6.86 6.56-6.86 6.56l-.01-.04c-.47.59-.94 1.15-1.45 1.66-3.9 3.94-9.5 5.83-14.07 6.53z"/><path fill="#231f20" d="M1296.96 1069.79c-15.12 1.03-20.52-5.77-22.21-9.01-.51-9.8.59-19.35 3.2-24.48 1.82-3.59 7.61-6.3 14.52-8.22-.4.04-.8.07-1.19.11-6.64.75-14.2 1.98-19.35 6.61-5.08 4.58-5.91 11.64-4.29 17.99 1.3 5.09 3.87 9.82 6.92 14.16v.01c.01.01.02.01.02.02.28.4.57.81.86 1.21-.02-.13-.03-.26-.05-.38 6.56 6.2 21.57 1.98 21.57 1.98z" opacity=".1"/><path fill="#d16f52" d="M1276.31 1060.1c4.78.61 8.57.72 13.34.58 4.86-.19 9.76-.78 14.32-2.45-4.66 1.35-9.52 1.59-14.32 1.44-4.79-.19-13.92-1.64-13.92-1.64-.44-1.58-.08-7.35.21-9.82.01-.12.03-.24.05-.37 4.9.2 9.77.23 14.64.02 4.93-.23 9.89-.62 14.67-1.84-4.85.89-9.78.94-14.68.83-4.81-.13-9.62-.48-14.38-1 .23-1.68.49-3.35.95-4.95 1.27-4.42 2.73-6.66 9.39-9.91 2.24-1.09 4.63-1.88 7.02-2.65 2.38-.82 4.82-1.48 7.26-2.15-5.05.52-10.05 1.59-14.88 3.38-2.41.91-4.79 2.03-6.87 3.79-.49.48-1.04.91-1.42 1.52l-.62.86-.46.91c-.33.6-.57 1.22-.78 1.85-.24.62-.44 1.25-.59 1.89-1.28 5.07-1.51 10.22-1.36 15.31.16 5.09 1.78 9.61 8.8 12.12-4.06-1.78-6.37-6.63-6.37-7.72z"/><path fill="#231f20" d="M1296.62 1025.19s-4.39 3.24-7.16-.66c-2.77-3.9 1.27-12.41-11.5-10.5-12.77 1.9-28.55.44-18.93-3.85 9.62-4.29 26.96-11.26 31.65-5.18 4.69 6.09 5.94 20.19 5.94 20.19z" opacity=".1"/><path fill="#d16f52" d="M1252.29 1012.3s20.44-20.05 28.61-22.83c8.18-2.78 21.33 4.26 23.92 10.22 2.39 5.51-1.21 20.12-4.22 23.65-3.01 3.53-7.67 7.18-10.3-4.59-2.63-11.77-5.9-11.52-5.9-11.52l-32.11 5.07z"/><path fill="#fff" d="M1297.8 1016.13s-2.75 7.63-1.81 8.91c.94 1.28 5.32-2.79 5.55-5.46.24-2.67-3.74-3.45-3.74-3.45z" opacity=".2"/><path fill="#f18a66" d="m1007.35 1061.75 216.81-32.61 27.32 40.45s-243.98 134.28-289.55 63.27c-45.58-70.99 45.42-71.11 45.42-71.11z"/><path fill="#231f20" d="M1252.14 1068.92c-6.54-4.6-9.54-17.21-11.12-28.99-1.19-8.96 1.86-17.34 5.45-23.71-1.28 1.04-2.54 2.13-3.72 3.33-3.09 3.12-17.19 15.94-14.6 27.4 4.05 17.9 20.57 19.14 23.26 22.08.24-.04.49-.07.73-.11z" opacity=".1"/><path fill="#d16f52" d="m704.57 1831.24 33.44 157.89-242.29 451.95 20.77 30.9s269.35-242.11 371.66-410.51c102.31-168.4 60.34-265.55 60.34-265.55l-243.92 35.32z"/><path fill="#f18a66" d="m908.01 1846.13-100.17 703.56-41.98-1.49-109.81-724.6z"/><path fill="#fba31c" d="M882.61 1169.4c12.43-53.85 23.58-91.82 28.21-124.03 23.16-8.95 47.6-89.34 47.6-89.34s-52.18-154.46-174.87-145.62C596.87 823.87 555.09 936.1 495.74 970.86c-16.13 9.45 52.57 56.36 80.28 104.27 25.49-13.9 35.92-26.65 64.4-51.1-8.33 100.35-4.92 203.2-78.37 275.82-146.48 144.82-35.05 344.29-82.45 497.52-47.4 153.23 468.09 193.77 557.8 50.93 89.71-142.82-182.49-558.89-154.79-678.9z"/><path fill="#f18a66" d="m760.86 2494.18 7.36 52.48s65.7 79.88 118.63 66.36c52.93-13.51 29.7-21.68 29.7-21.68s-84.82-24.65-109.26-37.54c-24.43-12.89-1.05-19.87-1.05-19.87l3.54-49.23-48.92 9.48z"/><path fill="#1f4168" d="M759.38 2527.78s48-5.21 52.35 11.8c4.34 17.01 13.52 52.93 51.14 54.4 37.63 1.47 77.34-4.64 72.2 6.74-5.15 11.38-67.91 45.53-103.97 26.55s-46.11-42.59-46.11-42.59l5.95 54.86-10.4 2.65c-.01 0-37.37-91.14-21.16-114.41z"/><path fill="#d16f52" d="M491.74 2452.87s-.57 103.42 48.77 126.88c49.33 23.46 36.7 2.33 36.7 2.33s-49.45-73.2-59.99-98.73c-10.54-25.54 11.9-15.95 11.9-15.95l-37.38-14.53z"/><path fill="#1f4168" d="M497.01 2432.7s40.24 26.69 32.7 42.55c-7.54 15.86-23.46 49.34 4.53 74.52 27.99 25.19 62.43 45.89 51.2 51.35-11.23 5.46-81.32-8.42-96.91-46.08-15.58-37.65-8.21-62.23-8.21-62.23l-30.51 45.98-9.69-4.61c-.01 0 29.55-93.96 56.89-101.48z"/><path fill="#d27606" d="M895.4 1030.53s-58.45 185.5-19.15 245.27c39.3 59.77 196.38 424.8 129.34 541.36-61.2 106.42-273.25 85.41-273.25 85.41s247.04-5.15 245.45-139.04c-1.96-165.74-34.6-304.06-125.37-453.52-87.88-18.8-163.3-23.18-163.3-23.18s129.52 15.74 143.15-57.38c13.63-73.13-67.73-162.73 63.13-198.92z" opacity=".25"/><path fill="#f18a66" d="M450.53 1067.22c-36.15 76.23 199.06 195.55 199.06 195.55l31.12-16.34s-.07-.03-.11-.14l-109.52-153.05-16.75-23.44s-12.69-14.81-30.05-25.36c-22.69-13.81-53.32-20.39-73.75 22.78z"/><path fill="#000107" d="M524.29 1044.46c2.32 14.21 3.38 30.67.04 44.57-4.95 20.72 60.25 79.23 107.99 118.76 1.7 1.41-18.44 31.6-.68 46.04 23.54 19.12 47.33-8.73 48.96-7.52L570.8 1093.3l.28-.04-16.75-23.44c0-.01-12.69-14.81-30.04-25.36z" opacity=".05"/><path fill="#d16f52" d="M654.69 1219.45s-1.37-23.75-14.45-27.49c-13.08-3.74-4.15 44.45-4.15 44.45s20.38-6.71 18.6-16.96z"/><path fill="#1d1b2c" d="M542.49 1362.75c-6.14-45.13 12.03-91.95 47.83-123.67 15.65-13.86 42.5-34.64 64.37-19.63 10.31 7.08 18.42 18.25 25.81 27.71 7.78 9.96 14.15 20.56 17.85 32.35 4.8 15.3 5.77 31.81 16.44 45.06 10.45 12.97 26.62 21.28 41.7 29.05 3.49 1.8 2.62 10.43-1.15 8.48-13.51-6.96-27.23-14.06-38.14-24.28-10.63-9.96-16.15-21.94-19.61-35.28-4.25-16.39-7.87-31.06-18.33-45.31-8.54-11.62-22.13-33.06-39-34.52-16.53-1.44-34.2 13.2-45.27 22.82a142.22 142.22 0 0 0-27.41 32.11c-16.03 25.73-22.8 55.41-18.8 84.79.72 5.37-5.58 5.59-6.29.32z"/><path fill="#1f4168" d="m503.92 1846.76 404.02-32-80.93-556.26-349.09 27.64z"/><path fill="#1d1b2c" d="m477.92 1286.14-15.85 12.35-11.61-10.18-28.78 480.26 39.09 20.09 43.15 58.1z"/><path d="m477.92 1286.14-17.15 502.52 43.15 58.1z" opacity=".2"/><path d="M763.59 1360.83c.66 6.91 7.36 12.02 14.95 11.42 7.6-.6 13.22-6.69 12.56-13.6-.66-6.91-7.36-12.02-14.95-11.42-7.6.6-13.23 6.69-12.56 13.6zM555.14 1372.35c.66 6.91 7.36 12.02 14.95 11.42 7.6-.6 13.22-6.69 12.56-13.6-.66-6.91-7.35-12.02-14.95-11.42-7.6.6-13.22 6.69-12.56 13.6z"/><path fill="#1d1b2c" d="M564.91 1362.75c-6.13-45.13 12.03-91.95 47.83-123.67 15.65-13.86 42.5-34.64 64.37-19.63 10.32 7.08 18.42 18.25 25.81 27.71 7.78 9.96 14.15 20.56 17.85 32.35 4.8 15.3 5.77 31.81 16.44 45.06 10.44 12.97 26.62 21.28 41.7 29.05 3.49 1.8 2.62 10.43-1.15 8.48-13.51-6.96-27.23-14.06-38.14-24.28-10.63-9.96-16.15-21.94-19.61-35.28-4.26-16.39-7.87-31.06-18.34-45.31-8.54-11.62-22.13-33.06-39-34.52-16.53-1.44-34.2 13.2-45.27 22.82a142.22 142.22 0 0 0-27.41 32.11c-16.03 25.73-22.8 55.41-18.8 84.79.73 5.37-5.57 5.59-6.28.32z"/><path fill="#f18a66" d="M716.98 1232.72c-6.38-2.42-18.46 8.22-18.46 8.22s15.36-17.25 8.53-20.78c-5.51-2.85-15.29 6.3-18.88 9.96 3.95-4.33 14.34-17.16 3.48-21.57-6.67-2.7-20.06 11.23-20.06 11.23s13.94-18.33 6.38-21.42c-14.03-5.74-38.87 25.36-38.87 25.36s-10.21 29.67 5.07 24.05c0 0-5.96 13.24 3.49 15.11 9.45 1.86 12.65-2.45 12.65-2.45s-2.77 8.91 2.84 11.83c5.61 2.92 8.77-3.91 8.77-3.91s1.84 10.8 10.64 8.77c7.01-1.62 17.04-12 20.84-16.17.1.07.17.11.17.11s.53-.7 1.38-1.86c4.39-5.98 17.38-24.46 12.03-26.48z"/><path fill="#fff" d="m664.76 1205.66 9.45 6.21s6.01-8.42 2.92-11.72c-3.09-3.3-12.37 5.51-12.37 5.51zM681.13 1215.8s6.09 7.93 8.52 6.72c2.42-1.21 6.23-7.49 3.18-10.71-3.05-3.23-11.43 2.79-11.7 3.99zM698.57 1224.14s2.08 4.94 5.71 5.21c0 0 4.93-4.75 2.31-7.23-2.63-2.47-8.02 2.02-8.02 2.02zM710.1 1235.78s1.73 4.01 4.42 3.69c0 0 3.17-2.09 1.7-5.07-1.46-2.99-6.12 1.38-6.12 1.38z" opacity=".2"/><path fill="#1d1b2c" d="M811.54 542.95c15.11 4.11 71.74 4.1 93.66 36.74 23.79 34.28-4.99 94.55 30.79 101.25 38.79.74 22.04 49.05-10.76 70.22-15.92 10.6-52.64 17.7-69.17 26.86-26.61 17.51-75.79 26.52-112.83 20.18-37.32-5.16-62.49-25.67-47.73-40.05 30.38-35.49-15.28-48.33 15.09-86.11 24.48-33.34 12.59-42.88 19.63-58.27 21.83-50.78 42.86-75.12 81.32-70.82z"/><path fill="#f18a66" d="m775.81 725.15-10.53 104.43s32.47 48.26 64.94 12.29l-.88-70.2-53.53-46.52z"/><path fill="#33133f" d="M802.39 843.21c6.98-11.87 9.66-29.93-1.16-40.5-4.37-4.28-10.07-6.95-14.29-11.4-5.24-5.54-6.19-13.94-5.42-21.21 1.25-11.88 6.29-23.45 5.47-35.22l42.34 36.79.88 70.2c-12.68 14.05-25.35 15.23-36.1 11.48 3.18-2.91 6-6.26 8.28-10.14z" opacity=".15"/><path fill="#f18a66" d="M914.17 617.8s5.85 167.9-60.84 173.17c-66.69 5.27-95.94-64.94-95.94-64.94s-12.29 7.61-15.21-4.68c-2.93-12.29-17.55-33.93-2.93-42.12 14.63-8.19 19.31 5.26 19.31 5.26l-8.19-38.03c-.01 0 162.04-83.66 163.8-28.66z"/><path fill="#33133f" d="M752.08 686.8s-8.78-4.74-12.29 2.11 4.22 33.01 14.57 29.85c0 0-13.34-5.79-11.76-21.78 1.57-15.97 7.19-5.08 9.48-10.18zM792.52 727.31c-.79 4.66 4.29 9.4 11.34 10.59 7.05 1.19 13.4-1.63 14.19-6.29.79-4.66-4.29-9.4-11.34-10.59-7.06-1.18-13.41 1.63-14.19 6.29zM872.37 727.75c-.79 4.66 4.29 9.4 11.34 10.59 7.05 1.19 13.4-1.62 14.19-6.28.79-4.66-4.29-9.4-11.34-10.59-7.05-1.19-13.4 1.62-14.19 6.28z" opacity=".05"/><path fill="#1d1b2c" d="M868.99 683.94c.68 0 1.34-.35 1.71-.99.32-.55 7.94-13.14 26.64-4.86 1 .44 2.16-.01 2.6-1 .44-1-.01-2.16-1-2.6-22.02-9.77-31.56 6.33-31.65 6.5-.54.95-.21 2.15.73 2.69.3.18.64.26.97.26zM830.77 684.29c.24 0 .49-.05.74-.14 1-.41 1.5-1.54 1.09-2.55-.07-.18-7.24-17.37-33.15-11.82a1.965 1.965 0 0 0-1.51 2.34 1.956 1.956 0 0 0 2.34 1.51c22.53-4.83 28.43 8.85 28.67 9.44.3.76 1.04 1.22 1.82 1.22zM853.21 734.07c.68 0 1.35-.1 2.01-.29 4.18-1.22 5.94-5.92 6.02-6.12.21-.58.14-1.23-.2-1.75-7.04-10.81-5.19-25.51-5.17-25.65.14-1.08-.61-2.07-1.69-2.21-1.07-.18-2.07.61-2.22 1.69-.09.64-1.98 15.48 5.19 27.4-.57 1.03-1.62 2.47-3.05 2.88-1.34.39-2.95-.14-4.82-1.57-.87-.66-2.1-.5-2.76.37-.66.86-.5 2.1.37 2.76 2.19 1.65 4.3 2.49 6.32 2.49z"/><path fill="#fcfaf7" d="M865.88 753.88s-22.48 10.18-47.66-1.53c-5.71 10.46 24.13 37.7 47.66 1.53z"/><path fill="#1d1b2c" d="M874.97 700.29c0 6.14 3.4 11.12 7.61 11.12 4.2 0 7.6-4.98 7.6-11.12 0-6.14-3.41-11.12-7.6-11.12-4.2 0-7.61 4.98-7.61 11.12zM806.53 700.29c0 6.14 3.41 11.12 7.6 11.12 4.2 0 7.61-4.98 7.61-11.12 0-6.14-3.41-11.12-7.61-11.12s-7.6 4.98-7.6 11.12z"/><path fill="#33133f" d="M836.73 781.8c2.08 0 3.44-.31 3.58-.34a.99.99 0 0 0 .73-1.19.989.989 0 0 0-1.18-.73c-.08.02-8.73 1.94-16.57-4.86a1 1 0 0 0-1.39.1.992.992 0 0 0 .1 1.39c5.44 4.72 11.16 5.63 14.73 5.63z" opacity=".05"/><path fill="#1d1b2c" d="M883.8 590.24c-.4-7.05-.05-11.64-.05-11.64 69.33 6.14 35.98 78.1 35.98 78.1-24.07-12.03-32.22-37.48-34.89-56.07-18.63 25.5-76.94 56.02-142.11 57.34l-8.16-14.44 149.23-53.29z"/><path fill="#1d1b2c" d="M890.27 588.86c-3.01 19.43-16.93 36.39-31.76 48.43-19.52 15.85-43.77 25.48-68.87 27.17-16.78 1.13-33.56-1.49-49.44-6.91-2.98-1.02-1.7-5.78 1.31-4.75 26.02 8.89 53.94 9.39 79.89-.02 20.59-7.47 39.9-20.95 52.65-38.92 5.58-7.87 9.98-16.69 11.46-26.3.49-3.13 5.24-1.81 4.76 1.3z"/><path fill="#ed9b27" d="M2386.63 1476.12c-39.23-20.11-66.08-66.63-59.98-103.9 6.1-37.28 42.85-51.19 82.08-31.08s66.08 66.62 59.98 103.9c-6.11 37.27-42.85 51.19-82.08 31.08z"/><path fill="#fed978" d="M2393.3 1472.47c-39.23-20.11-66.08-66.63-59.98-103.9 6.1-37.28 42.85-51.19 82.08-31.08s66.08 66.63 59.98 103.9c-6.1 37.27-42.85 51.18-82.08 31.08z"/><path fill="#f7b320" d="M2394.42 1465.61c-14.76-7.57-27.55-19.28-37.05-32.8-12.12-17.25-18.86-37.45-17.42-55.72.13-1.63.32-3.24.59-4.83.36-2.19.83-4.3 1.42-6.3.24-.84.5-1.65.79-2.44 4.45-12.69 13.54-21.35 25.29-25.19 13.07-4.27 29.4-2.63 46.25 6 12.5 6.41 23.61 15.8 32.48 26.74 12.86 15.84 21.05 34.95 22.09 52.98.27 4.64.07 9.22-.66 13.64-1.56 9.55-5.36 17.39-10.82 23.3-.54.58-1.09 1.15-1.66 1.69a37.328 37.328 0 0 1-8.12 5.94c-13.95 7.65-33.21 7.23-53.18-3.01z"/><path fill="#ffc532" d="M2389.84 1459.55c-12.5-6.41-23.61-15.8-32.48-26.74-13.2-18.79-20.03-41.08-16.84-60.56 5.48-33.49 38.5-45.99 73.75-27.93 12.5 6.41 23.61 15.8 32.48 26.74 13.2 18.79 20.02 41.08 16.84 60.56-5.49 33.5-38.5 46-73.75 27.93z"/><path fill="#edd9b2" d="m2457.36 1460.99-114.63-97.47c4.45-12.69 13.54-21.35 25.29-25.19l100.81 85.72c.27 4.64.07 9.22-.66 13.64-1.56 9.55-5.35 17.39-10.81 23.3zM2447.58 1468.62l-107.64-91.53c.13-1.63.32-3.24.59-4.83.36-2.19.83-4.3 1.42-6.3l113.76 96.71a37.431 37.431 0 0 1-8.13 5.95z" opacity=".35"/><path fill="#f7b320" d="M2383.24 1406.01c2.26 1.16 4.12 1.54 5.58 1.14 1.46-.4 2.98-1.64 4.56-3.72 1.58-2.08 3.14-3.94 4.68-5.6 1.54-1.66 3.22-2.9 5.03-3.74 1.81-.84 3.8-1.17 5.98-1 2.17.17 4.71 1 7.59 2.48 4.83 2.48 8.56 6.07 11.19 10.77 2.62 4.71 3.77 9.77 3.44 15.2l9.06 4.64-1.06 6.49-9.23-4.73c-1.59 4.58-4.38 7.39-8.38 8.41-4 1.03-8.71.15-14.15-2.64l2.26-13.78c2.98 1.52 5.35 2.15 7.14 1.89 1.78-.27 2.83-1.41 3.16-3.42.3-1.79-.07-3.49-1.1-5.09-1.03-1.6-2.58-2.94-4.67-4.01-2.12-1.08-3.89-1.37-5.32-.87-1.43.51-2.92 1.73-4.46 3.68a68.15 68.15 0 0 1-4.69 5.35c-1.58 1.62-3.28 2.85-5.09 3.69-1.81.84-3.82 1.19-6.03 1.06-2.21-.13-4.76-.94-7.65-2.42-4.9-2.51-8.64-6.03-11.25-10.56-2.6-4.54-3.75-9.47-3.43-14.82l-8.63-4.42 1.06-6.48 8.67 4.44c1.63-5.59 4.51-9.04 8.65-10.35 4.14-1.31 9.17-.45 15.09 2.59l-2.25 13.74c-3.26-1.67-5.86-2.26-7.79-1.75-1.93.5-3.1 2.01-3.51 4.54-.3 1.85.04 3.6 1.03 5.26.98 1.64 2.49 2.99 4.52 4.03z"/><path fill="#fed978" d="M2386.83 1404.5c2.26 1.16 4.12 1.54 5.58 1.14 1.46-.4 2.98-1.64 4.56-3.72 1.58-2.08 3.14-3.95 4.68-5.6 1.54-1.66 3.22-2.9 5.03-3.74 1.82-.84 3.8-1.17 5.98-1 2.17.17 4.71 1 7.59 2.48 4.84 2.48 8.57 6.07 11.19 10.77 2.63 4.71 3.77 9.77 3.44 15.2l9.06 4.64-1.06 6.49-9.23-4.73c-1.59 4.58-4.38 7.38-8.38 8.41-4 1.02-8.72.15-14.15-2.64l2.26-13.79c2.97 1.53 5.35 2.15 7.13 1.89 1.78-.26 2.84-1.4 3.17-3.42.29-1.79-.07-3.49-1.1-5.09-1.02-1.6-2.58-2.94-4.67-4.01-2.12-1.08-3.89-1.38-5.32-.87-1.43.51-2.92 1.73-4.46 3.68a68.15 68.15 0 0 1-4.69 5.35c-1.58 1.62-3.28 2.85-5.09 3.69-1.81.84-3.82 1.19-6.04 1.06-2.21-.13-4.76-.94-7.65-2.42-4.89-2.51-8.64-6.03-11.25-10.56-2.61-4.53-3.75-9.47-3.43-14.82l-8.63-4.42 1.06-6.48 8.67 4.44c1.63-5.59 4.51-9.04 8.65-10.35 4.14-1.31 9.17-.45 15.09 2.59l-2.25 13.74c-3.26-1.67-5.86-2.26-7.79-1.76-1.93.5-3.1 2.02-3.51 4.54-.3 1.85.04 3.6 1.02 5.26 1.01 1.66 2.51 3.01 4.54 4.05z"/><path fill="#ed9b27" d="M1997.4 923.12c-27.64-9.27-49.81-37.03-49.51-62.01.3-24.98 22.96-37.72 50.6-28.45s49.81 37.03 49.51 62.01c-.3 24.98-22.96 37.71-50.6 28.45z"/><path fill="#fed978" d="M2001.4 920.07c-27.64-9.27-49.81-37.03-49.51-62.01.3-24.98 22.96-37.72 50.6-28.45s49.81 37.03 49.51 62.01c-.3 24.98-22.96 37.71-50.6 28.45z"/><path fill="#f7b320" d="M2001.45 915.48c-10.4-3.49-19.93-9.88-27.48-17.78-9.63-10.08-16.04-22.62-16.91-34.71-.08-1.08-.11-2.15-.1-3.22.02-1.47.12-2.89.3-4.26.07-.57.17-1.13.28-1.67 1.65-8.74 6.74-15.3 14.04-18.98 8.12-4.09 18.96-4.63 30.84-.65 8.81 2.95 17 8 23.89 14.27 9.98 9.09 17.23 20.77 19.69 32.46.63 3.01.96 6.02.92 8.99-.08 6.4-1.78 11.9-4.77 16.31-.29.43-.6.86-.92 1.27a24.958 24.958 0 0 1-4.72 4.69c-8.34 6.37-20.98 7.99-35.06 3.28z"/><path fill="#ffc532" d="M1997.86 911.97c-8.81-2.95-17-8-23.88-14.27-10.49-10.98-17.16-24.88-17-37.93.27-22.45 20.62-33.89 45.46-25.56 8.81 2.95 17 8 23.89 14.27 10.49 10.98 17.16 24.88 17 37.93-.28 22.44-20.63 33.88-45.47 25.56z"/><path fill="#edd9b2" d="m2042.16 906.22-84.61-52.4c1.65-8.74 6.74-15.3 14.04-18.98l74.41 46.08c.63 3.01.96 6.02.92 8.99-.07 6.41-1.78 11.91-4.76 16.31zM2036.52 912.18l-79.45-49.2c-.08-1.08-.11-2.15-.1-3.22.02-1.47.12-2.89.3-4.26l83.97 51.99a24.668 24.668 0 0 1-4.72 4.69z" opacity=".35"/><path fill="#f7b320" d="M1988.24 877.6c1.59.53 2.85.6 3.76.19.92-.41 1.79-1.37 2.62-2.88.83-1.52 1.66-2.89 2.51-4.13.85-1.23 1.82-2.22 2.92-2.94 1.1-.73 2.37-1.14 3.81-1.25 1.44-.1 3.17.19 5.21.87 3.41 1.14 6.2 3.12 8.39 5.94 2.18 2.82 3.43 6.02 3.76 9.6l6.38 2.14-.05 4.35-6.5-2.18c-.58 3.15-2.13 5.26-4.65 6.33-2.51 1.07-5.69.96-9.52-.33l.11-9.24c2.1.7 3.72.88 4.85.53 1.14-.35 1.71-1.2 1.73-2.55.01-1.2-.39-2.28-1.22-3.22-.83-.95-1.98-1.67-3.45-2.16-1.49-.5-2.68-.51-3.57-.04-.89.47-1.74 1.42-2.55 2.85-.82 1.43-1.66 2.75-2.54 3.97-.87 1.22-1.86 2.19-2.97 2.92-1.1.73-2.38 1.16-3.84 1.29-1.46.13-3.21-.14-5.24-.82-3.45-1.16-6.25-3.09-8.4-5.79-2.15-2.71-3.39-5.82-3.71-9.35l-6.08-2.04.05-4.34 6.11 2.05c.51-3.82 2.06-6.36 4.63-7.63 2.58-1.27 5.95-1.2 10.13.2l-.11 9.21c-2.3-.77-4.05-.9-5.26-.38s-1.83 1.62-1.85 3.32c-.01 1.24.38 2.35 1.19 3.34.8.96 1.92 1.69 3.35 2.17z"/><path fill="#fed978" d="M1990.45 876.26c1.59.53 2.85.6 3.76.19.92-.41 1.79-1.37 2.62-2.88a46.16 46.16 0 0 1 2.51-4.12c.84-1.24 1.82-2.22 2.92-2.95 1.1-.73 2.37-1.14 3.81-1.25 1.44-.1 3.18.19 5.21.87 3.41 1.14 6.2 3.12 8.39 5.94 2.18 2.82 3.44 6.02 3.76 9.6l6.38 2.14-.05 4.35-6.5-2.18c-.58 3.15-2.13 5.26-4.65 6.33-2.51 1.07-5.69.96-9.52-.32l.11-9.24c2.09.71 3.71.88 4.85.53 1.14-.35 1.72-1.2 1.73-2.55.01-1.2-.39-2.28-1.22-3.22-.83-.95-1.98-1.66-3.45-2.16-1.49-.5-2.68-.51-3.57-.04-.89.47-1.74 1.42-2.56 2.85-.82 1.43-1.66 2.75-2.54 3.97-.87 1.22-1.86 2.19-2.96 2.92-1.1.73-2.38 1.16-3.84 1.29-1.46.13-3.21-.14-5.24-.83-3.45-1.16-6.25-3.09-8.4-5.79-2.15-2.71-3.39-5.82-3.71-9.35l-6.08-2.04.05-4.34 6.11 2.05c.51-3.82 2.05-6.36 4.63-7.63 2.58-1.27 5.95-1.2 10.13.2l-.11 9.21c-2.3-.77-4.05-.9-5.27-.38-1.21.52-1.83 1.62-1.85 3.32-.02 1.24.38 2.35 1.19 3.34.8.96 1.92 1.69 3.36 2.17z"/><path fill="#ed9b27" d="M1151.48 1879.22c-10.41-29.46-1.58-66.49 19.71-82.71 21.3-16.22 46.99-5.49 57.4 23.97 10.41 29.46 1.58 66.49-19.71 82.71s-46.99 5.49-57.4-23.97z"/><path fill="#fed978" d="M1159.22 1873.04c-10.41-29.46-1.58-66.49 19.71-82.71s46.99-5.49 57.4 23.97c10.41 29.46 1.58 66.49-19.71 82.71s-46.99 5.49-57.4-23.97z"/><path fill="#f7b320" d="M1163.13 1870.06c-3.91-11.08-4.8-23.35-3.11-34.93 2.16-14.78 8.52-28.47 18.16-37.18.86-.78 1.74-1.51 2.65-2.2 1.25-.96 2.52-1.81 3.8-2.55.54-.32 1.06-.6 1.6-.87 8.47-4.37 17.37-4.39 25.29-.66 8.81 4.16 16.42 12.96 20.89 25.61 3.32 9.39 4.46 19.63 3.7 29.58-1.09 14.42-6.18 28.25-14.43 38.04-2.12 2.52-4.45 4.78-6.98 6.7-5.46 4.16-11.23 6.34-16.92 6.73-.56.04-1.12.06-1.67.06-2.39.02-4.76-.28-7.08-.89-10.88-2.85-20.59-12.45-25.9-27.44z"/><path fill="#ffc532" d="M1163.73 1864.71c-3.32-9.39-4.46-19.63-3.7-29.59 2.35-16.1 9.69-30.9 20.82-39.38 19.13-14.58 42.22-4.94 51.58 21.53 3.32 9.39 4.46 19.63 3.7 29.58-2.35 16.1-9.69 30.9-20.82 39.38-19.14 14.59-42.23 4.95-51.58-21.52z"/><path fill="#edd9b2" d="m1197.8 1898.33-11.56-106.01c8.47-4.37 17.37-4.39 25.29-.66l10.17 93.24c-2.12 2.52-4.45 4.78-6.98 6.7-5.46 4.16-11.23 6.34-16.92 6.73zM1189.05 1897.5l-10.86-99.55c.86-.78 1.74-1.51 2.65-2.2 1.25-.96 2.52-1.81 3.8-2.55l11.48 105.2c-2.39.01-4.75-.29-7.07-.9z" opacity=".35"/><path fill="#f7b320" d="M1186.41 1833.92c.6 1.7 1.37 2.8 2.32 3.3.95.5 2.34.61 4.16.31 1.83-.3 3.54-.5 5.14-.6 1.6-.1 3.07.07 4.41.52 1.34.45 2.53 1.25 3.57 2.4s1.94 2.81 2.7 4.98c1.28 3.63 1.45 7.3.52 11-.94 3.7-2.82 6.87-5.63 9.5l2.4 6.8-3.71 2.82-2.45-6.93c-3.05 1.58-5.85 1.67-8.41.25-2.56-1.42-4.56-4.17-6-8.25l7.87-6c.79 2.23 1.71 3.72 2.76 4.45 1.04.73 2.14.66 3.29-.22 1.02-.78 1.66-1.83 1.92-3.16.25-1.32.1-2.77-.45-4.34-.56-1.59-1.34-2.6-2.32-3.04-.98-.44-2.34-.53-4.09-.28-1.74.25-3.42.41-5.02.47-1.6.06-3.08-.13-4.42-.58-1.34-.45-2.55-1.25-3.62-2.39-1.07-1.14-2-2.8-2.76-4.97-1.3-3.68-1.51-7.31-.65-10.92.87-3.6 2.68-6.7 5.45-9.3l-2.29-6.48 3.7-2.82 2.3 6.51c3.56-2.09 6.73-2.46 9.5-1.12 2.77 1.34 4.94 4.23 6.51 8.68l-7.85 5.98c-.87-2.45-1.92-4.01-3.15-4.69-1.24-.68-2.57-.47-4.02.63-1.06.81-1.73 1.87-2.03 3.21-.31 1.33-.19 2.76.35 4.28z"/><path fill="#fed978" d="M1188.99 1834.89c.6 1.7 1.37 2.8 2.32 3.3.95.51 2.33.61 4.16.31s3.54-.5 5.14-.6c1.6-.1 3.07.07 4.41.52 1.34.45 2.53 1.25 3.57 2.4s1.94 2.81 2.7 4.97c1.28 3.63 1.46 7.3.52 11s-2.82 6.87-5.63 9.51l2.4 6.8-3.71 2.82-2.45-6.93c-3.05 1.59-5.85 1.67-8.41.25-2.56-1.42-4.56-4.17-6-8.25l7.88-6c.79 2.23 1.71 3.71 2.75 4.45 1.05.73 2.14.66 3.29-.22 1.02-.78 1.66-1.83 1.91-3.16.25-1.32.1-2.77-.45-4.34-.56-1.59-1.33-2.61-2.32-3.04-.98-.44-2.35-.53-4.09-.28-1.74.25-3.42.41-5.02.47-1.6.06-3.08-.13-4.42-.58-1.34-.45-2.55-1.25-3.63-2.39-1.07-1.14-1.99-2.8-2.76-4.97-1.3-3.68-1.51-7.31-.65-10.92.87-3.61 2.68-6.71 5.45-9.31l-2.29-6.48 3.7-2.82 2.3 6.51c3.56-2.08 6.73-2.46 9.5-1.12 2.77 1.34 4.94 4.23 6.51 8.68l-7.85 5.98c-.87-2.45-1.92-4.02-3.15-4.7-1.23-.68-2.58-.47-4.02.63-1.06.8-1.73 1.87-2.03 3.2-.28 1.36-.16 2.79.37 4.31z"/><path fill="#fba31c" d="M1548.81 1073.9c-9.9 0-17.51-5.41-17.51-14.17h8.68c.35 4.06 3.2 7.33 8.83 7.33 5.69 0 8.89-3.06 8.89-7.26 0-11.96-26.26-4.2-26.26-22.42 0-8.68 6.9-14.09 17.01-14.09 9.47 0 16.15 4.98 16.87 13.45h-8.97c-.28-3.35-3.2-6.4-8.33-6.54-4.7-.15-8.33 2.13-8.33 6.9 0 11.17 26.19 4.2 26.19 22.28.01 7.4-6.04 14.52-17.07 14.52zM1575.43 1023.94h8.12v31.53c0 7.69 4.34 11.32 11.17 11.32 6.91 0 11.25-3.63 11.25-11.32v-31.53h8.12v31.38c0 12.6-9.11 18.58-19.43 18.58-10.39 0-19.22-5.98-19.22-18.58v-31.38zM1641.69 1053.33h-8.97v20.07h-8.11v-49.46h17.08c11.75 0 17.51 6.69 17.51 14.73 0 7.04-4.62 14.66-17.51 14.66zm0-6.62c6.34 0 9.19-3.06 9.19-8.04 0-5.13-2.85-8.12-9.19-8.12h-8.97v16.16h8.97zM1694.29 1030.48h-19.22V1045h17.08v6.62h-17.08v15.16h19.22v6.62h-27.33v-49.54h27.33v6.62zM1721.34 1023.94c11.75 0 17.51 6.76 17.51 14.8 0 5.84-3.13 12.1-11.46 14.17l12.24 20.5h-9.68l-11.39-19.79h-6.2v19.79h-8.11v-49.46h17.09zm0 6.61h-8.97v16.58h8.97c6.34 0 9.18-3.49 9.18-8.4 0-4.97-2.84-8.18-9.18-8.18zM1784.05 1073.9c-9.89 0-17.51-5.41-17.51-14.17h8.68c.35 4.06 3.2 7.33 8.83 7.33 5.69 0 8.9-3.06 8.9-7.26 0-11.96-26.26-4.2-26.26-22.42 0-8.68 6.9-14.09 17.01-14.09 9.47 0 16.15 4.98 16.87 13.45h-8.97c-.28-3.35-3.2-6.4-8.33-6.54-4.7-.15-8.33 2.13-8.33 6.9 0 11.17 26.19 4.2 26.19 22.28 0 7.4-6.05 14.52-17.08 14.52zM1840.56 1063.3h-20.71l-3.56 10.1h-8.47l17.72-49.54h9.39l17.73 49.54h-8.54l-3.56-10.1zm-10.32-29.61-8.11 22.99h16.15l-8.04-22.99zM1868.46 1023.94v42.91h16.73v6.55h-24.84v-49.46h8.11zM1919.28 1030.48h-19.22V1045h17.08v6.62h-17.08v15.16h19.22v6.62h-27.33v-49.54h27.33v6.62z"/><path fill="#1f4168" d="M1591.38 1218.99h-56.12v-113.36h54.35c22.99 0 37.14 10.61 37.14 29.42 0 13.67-8.04 22.67-19.14 25.73 13.51 3.06 21.71 14.48 21.71 27.34.01 19.13-13.66 30.87-37.94 30.87zm-8.68-88.28h-15.92v19.94h15.92c7.72 0 11.89-3.22 11.89-9.81.01-6.75-4.17-10.13-11.89-10.13zm2.25 42.29h-18.17v20.58h18.33c7.88 0 11.89-3.21 11.89-9.97.01-6.91-4.33-10.61-12.05-10.61zM1674.68 1105.63v89.24h35.22v24.12h-66.73v-113.36h31.51zM1793.84 1200.5h-40.2l-6.11 18.49h-33.12l41.32-113.36h36.34l41.16 113.36h-33.29l-6.1-18.49zm-20.09-60.79-12.06 36.66h24.28l-12.22-36.66zM1896.12 1104.5c28.46 0 48.72 16.4 54.35 42.13h-33.93c-4.02-8.52-11.58-13.18-20.9-13.18-14.47 0-23.96 11.25-23.96 28.62 0 17.53 9.49 28.78 23.96 28.78 9.32 0 16.88-4.67 20.9-13.18h33.93c-5.63 25.73-25.89 42.12-54.35 42.12-34.09 0-56.44-23.8-56.44-57.72 0-33.77 22.35-57.57 56.44-57.57zM1996.95 1169.3v49.69h-31.52v-113.36h31.52v48.88l35.22-48.88h36.34l-41.65 54.99 43.74 58.37h-38.11l-35.54-49.69zM1535.26 1241.05h76.86v25.08h-45.34v19.94h33.45v23.96h-33.45v44.38h-31.52v-113.36zM1675.16 1241.05c28.14 0 42.29 16.07 42.29 36.34 0 14.8-8.04 27.66-24.92 32.81l25.56 44.22h-35.21l-22.51-41.81h-3.38v41.81h-31.52v-113.36h49.69zm-2.57 26.37h-15.6v23.64h15.6c8.52 0 12.86-4.18 12.86-11.9 0-7.07-4.34-11.74-12.86-11.74zM1731.77 1241.05h31.52v113.36h-31.52v-113.36zM1885.34 1297.66c0 32.8-22.99 56.76-59.18 56.76h-44.86v-113.36h44.86c36.19-.01 59.18 23.3 59.18 56.6zm-61.58 28.94c18.17 0 29.58-10.29 29.58-28.94 0-18.81-11.41-29.27-29.58-29.27h-10.94v58.21h10.94zM1971.21 1335.92h-40.2l-6.11 18.49h-33.12l41.32-113.36h36.34l41.16 113.36h-33.29l-6.1-18.49zm-20.09-60.78-12.06 36.66h24.28l-12.22-36.66zM2012.55 1241.05h36.02l19.94 43.74 19.94-43.74h35.54l-39.88 77.34v36.02h-31.68v-36.02l-39.88-77.34z"/><path fill="#fba31c" d="M1658.62 1392.11v46.83h-81.19v30.04c6.76-7.04 19.21-11.91 33.83-11.91 40.87 0 58.19 31.39 58.19 64.41 0 42.49-25.17 68.47-68.47 68.47-46.01 0-72.53-25.44-72.81-60.9h51.7c.81 7.31 5.95 15.43 18.94 15.43 13.26 0 19.21-10.02 19.21-23.82 0-14.34-7.3-21.65-20.02-21.65-10.28 0-15.97 5.96-17.06 12.72h-51.69v-119.62h129.37zM1770.46 1388.05c56.84 0 78.76 41.68 78.76 100.14 0 59.27-21.92 100.68-78.76 100.68s-78.48-41.41-78.48-100.68c0-58.46 21.64-100.14 78.48-100.14zm0 50.08c-23.54 0-26.25 22.73-26.25 50.07 0 28.14 2.71 50.61 26.25 50.61 23.55 0 26.25-22.47 26.25-50.61.01-27.34-2.7-50.07-26.25-50.07zM1913.42 1395.64c26.79 0 46.82 15.7 46.82 47.36 0 31.39-20.03 47.36-46.82 47.36s-47.09-15.97-47.09-47.36c.01-31.67 20.3-47.36 47.09-47.36zm-11.36 47.36c0 11.1 4.06 16.23 11.1 16.23s11.64-5.14 11.64-16.23c0-11.1-4.6-16.24-11.64-16.24-7.04 0-11.1 5.14-11.1 16.24zm105.55-44.39h50.88l-102.57 191.34h-50.88l102.57-191.34zm42.76 99.33c26.79 0 46.55 15.97 46.55 47.36 0 31.67-19.76 47.63-46.55 47.63-26.79 0-47.09-15.96-47.09-47.63 0-31.39 20.29-47.36 47.09-47.36zm-11.64 47.36c0 11.36 4.06 16.51 11.37 16.51 6.76 0 11.36-5.15 11.36-16.51 0-10.83-4.6-16.24-11.36-16.24-7.31 0-11.37 5.41-11.37 16.24zM1586.26 1728.86c-28.71 0-51.96-21.53-51.96-51.96s23.25-51.82 51.96-51.82c28.85 0 51.82 21.39 51.82 51.82s-23.11 51.96-51.82 51.96zm0-26.12c14.49 0 23.25-10.19 23.25-25.84 0-15.93-8.76-25.97-23.25-25.97-14.64 0-23.25 10.04-23.25 25.97 0 15.64 8.61 25.84 23.25 25.84zM1650.77 1626.66h68.6v22.39h-40.47v17.8h29.86v21.39h-29.86v39.61h-28.13v-101.19zM1731.33 1626.66h68.61v22.39h-40.47v17.8h29.85v21.39h-29.85v39.61h-28.14v-101.19z"/></svg>